<svg width="30" height="30" viewBox="0 0 30 30" fill="none" xmlns="http://www.w3.org/2000/svg">
<path d="M28.4028 18.7263L27.3958 18.0947C25.7639 17.0526 24.7222 15.4105 24.5139 13.6105L24.375 11.9684C24.1319 12 23.8542 12.0316 23.5764 12.0316C22.9167 12.0316 22.2917 11.9368 21.7014 11.7789L21.9097 13.8632C22.0486 15.1263 22.4653 16.3263 23.1597 17.3684C23.8542 18.4421 24.7917 19.3579 25.9028 20.0842L26.9097 20.7158C27.1875 20.9053 27.3611 21.1895 27.3611 21.5368V22.5474H2.63889V21.5368C2.63889 21.2211 2.8125 20.9053 3.09028 20.7158L4.09722 20.0842C6.38889 18.6316 7.84722 16.3579 8.09028 13.8632L8.4375 10.3579C8.75 7.23158 11.5625 4.89474 15 4.89474C15.9028 4.89474 16.7708 5.05263 17.5694 5.36842C17.7431 4.54737 18.125 3.82105 18.6458 3.18947C17.9167 2.90526 17.1528 2.71579 16.3194 2.62105V1.2C16.3194 0.536842 15.7292 0 15 0C14.2708 0 13.6806 0.536842 13.6806 1.2V2.58947C9.51389 3.12632 6.21528 6.18947 5.79861 10.1053L5.45139 13.6105C5.27778 15.4421 4.23611 17.0526 2.60417 18.0947L1.59722 18.7263C0.590278 19.3579 0 20.4 0 21.5053V22.8C0 23.9684 1.04167 24.9158 2.32639 24.9158H8.92361C9.20139 27.7579 11.8056 30 15 30C18.1944 30 20.8333 27.7579 21.0764 24.9158H27.6736C28.9583 24.9158 30 23.9684 30 22.8V21.5053C30 20.4 29.4097 19.3579 28.4028 18.7263ZM15 27.6C13.2639 27.6 11.8056 26.4316 11.5625 24.9158H18.4375C18.1944 26.4316 16.7361 27.6 15 27.6Z" fill="black"/>
<path d="M23.5764 10.0737C25.7817 10.0737 27.5695 8.44776 27.5695 6.4421C27.5695 4.43643 25.7817 2.81052 23.5764 2.81052C21.3711 2.81052 19.5834 4.43643 19.5834 6.4421C19.5834 8.44776 21.3711 10.0737 23.5764 10.0737Z" fill="#F41313"/>
</svg>
