<svg width="61" height="56" viewBox="0 0 61 56" fill="none" xmlns="http://www.w3.org/2000/svg">
<path d="M36.7883 55.564C40.0627 55.564 42.7172 54.7407 42.7172 53.7251C42.7172 52.7095 40.0627 51.8862 36.7883 51.8862C33.5139 51.8862 30.8595 52.7095 30.8595 53.7251C30.8595 54.7407 33.5139 55.564 36.7883 55.564Z" fill="#F2BA5B"/>
<path d="M46.6989 16.1682C47.3207 16.1682 47.8248 15.7051 47.8248 15.1339C47.8248 14.5626 47.3207 14.0996 46.6989 14.0996C46.077 14.0996 45.5729 14.5626 45.5729 15.1339C45.5729 15.7051 46.077 16.1682 46.6989 16.1682Z" fill="#F2BA5B"/>
<path d="M60.1746 14.1097L52.5923 10.6108C51.1427 4.95895 44.8517 0 36.286 0C26.873 0 20.9552 8.25711 20.9552 17.5962C20.9552 18.5625 21.0497 19.5085 21.208 20.4326C21.5481 30.6755 12.4635 30.3919 7.76139 28.4265C7.47558 27.7336 7.12599 26.9657 6.72364 26.1681C5.34733 23.4582 3.85371 21.4302 3.3994 21.6607C2.96556 21.8809 3.6112 24.0253 4.84972 26.5462C2.08529 24.0253 0.720001 20.7678 0.720001 24.8643C0.720001 35.2853 12.1124 50.5715 26.6187 50.5715C43.4439 50.5715 55.0181 39.8661 54.9851 22.5434L60.1313 17.0282C60.6612 16.7345 60.9887 16.1877 60.9997 15.5784C61.0107 14.9808 60.6927 14.4238 60.1746 14.1097ZM45.4879 17.0298C44.1124 17.0298 42.9998 15.926 42.9998 14.5605C42.9998 13.1848 44.1124 12.081 45.4879 12.081C46.8642 12.081 47.987 13.1848 47.987 14.5605C47.987 15.926 46.8642 17.0298 45.4879 17.0298Z" fill="#F2BA5B"/>
</svg>
