<svg width="40" height="40" viewBox="0 0 40 40" fill="none" xmlns="http://www.w3.org/2000/svg">
<path d="M11.6667 18.3333H15V21.6667H11.6667V18.3333ZM35 10V33.3333C35 35.1667 33.5 36.6667 31.6667 36.6667H8.33333C6.48333 36.6667 5 35.1667 5 33.3333L5.01667 10C5.01667 8.16668 6.48333 6.66668 8.33333 6.66668H10V3.33334H13.3333V6.66668H26.6667V3.33334H30V6.66668H31.6667C33.5 6.66668 35 8.16668 35 10ZM8.33333 13.3333H31.6667V10H8.33333V13.3333ZM31.6667 33.3333V16.6667H8.33333V33.3333H31.6667ZM25 21.6667H28.3333V18.3333H25V21.6667ZM18.3333 21.6667H21.6667V18.3333H18.3333V21.6667Z" fill="#CCCCCC"/>
</svg>
