<svg width="30" height="34" viewBox="0 0 30 34" fill="none" xmlns="http://www.w3.org/2000/svg">
<path d="M6.6667 15.3333H10V18.6667H6.6667V15.3333ZM30 6.99997V30.3333C30 32.1667 28.5 33.6667 26.6667 33.6667H3.33333C1.48333 33.6667 0 32.1667 0 30.3333L0.0166702 6.99997C0.0166702 5.16665 1.48333 3.66665 3.33333 3.66665H5V0.333313H8.3333V3.66665H21.6667V0.333313H25V3.66665H26.6667C28.5 3.66665 30 5.16665 30 6.99997ZM3.33333 10.3333H26.6667V6.99997H3.33333V10.3333ZM26.6667 30.3333V13.6667H3.33333V30.3333H26.6667ZM20 18.6667H23.3333V15.3333H20V18.6667ZM13.3333 18.6667H16.6667V15.3333H13.3333V18.6667Z" fill="#6263D5"/>
</svg>
