<svg width="40" height="40" viewBox="0 0 40 40" fill="none" xmlns="http://www.w3.org/2000/svg">
<path d="M11.6667 25H23.3333V28.3333H11.6667V25ZM11.6667 18.3333H28.3333V21.6667H11.6667V18.3333ZM11.6667 11.6667H28.3333V15H11.6667V11.6667ZM31.6667 4.99999H24.7C24 3.06666 22.1667 1.66666 20 1.66666C17.8333 1.66666 16 3.06666 15.3 4.99999H8.33333C8.1 4.99999 7.88333 5.01666 7.66667 5.06666C7.01667 5.19999 6.43333 5.53332 5.98333 5.98332C5.68333 6.28332 5.43333 6.64999 5.26667 7.04999C5.1 7.43332 5 7.86666 5 8.33332V31.6667C5 32.1167 5.1 32.5667 5.26667 32.9667C5.43333 33.3667 5.68333 33.7167 5.98333 34.0333C6.43333 34.4833 7.01667 34.8167 7.66667 34.95C7.88333 34.9833 8.1 35 8.33333 35H31.6667C33.5 35 35 33.5 35 31.6667V8.33332C35 6.49999 33.5 4.99999 31.6667 4.99999ZM20 4.58332C20.6833 4.58332 21.25 5.14999 21.25 5.83332C21.25 6.51666 20.6833 7.08332 20 7.08332C19.3167 7.08332 18.75 6.51666 18.75 5.83332C18.75 5.14999 19.3167 4.58332 20 4.58332ZM31.6667 31.6667H8.33333V8.33332H31.6667V31.6667Z" fill="#CCCCCC"/>
</svg>
