<svg width="30" height="34" viewBox="0 0 30 34" fill="none" xmlns="http://www.w3.org/2000/svg">
<path d="M6.6667 24H18.3333V27.3333H6.6667V24ZM6.6667 17.3333H23.3333V20.6667H6.6667V17.3333ZM6.6667 10.6667H23.3333V14H6.6667V10.6667ZM26.6667 4.00002H19.7C19 2.06669 17.1667 0.666687 15 0.666687C12.8333 0.666687 11 2.06669 10.3 4.00002H3.33333C3.1 4.00002 2.88333 4.01669 2.66667 4.06669C2.01667 4.20002 1.43333 4.53335 0.98333 4.98335C0.68333 5.28335 0.43333 5.65002 0.26667 6.05002C0.1 6.43335 0 6.86669 0 7.33335V30.6667C0 31.1167 0.1 31.5667 0.26667 31.9667C0.43333 32.3667 0.68333 32.7167 0.98333 33.0333C1.43333 33.4833 2.01667 33.8167 2.66667 33.95C2.88333 33.9833 3.1 34 3.33333 34H26.6667C28.5 34 30 32.5 30 30.6667V7.33335C30 5.50002 28.5 4.00002 26.6667 4.00002ZM15 3.58335C15.6833 3.58335 16.25 4.15002 16.25 4.83335C16.25 5.51669 15.6833 6.08335 15 6.08335C14.3167 6.08335 13.75 5.51669 13.75 4.83335C13.75 4.15002 14.3167 3.58335 15 3.58335ZM26.6667 30.6667H3.33333V7.33335H26.6667V30.6667Z" fill="#6263D5"/>
</svg>
