<svg xmlns="http://www.w3.org/2000/svg" viewBox="0 0 2450.62 1427.06"><defs><style>.cls-1{fill:#ebf3fa;}.cls-2{fill:#b5453c;}.cls-3{fill:#efcbab;}.cls-4{fill:#ed7d2b;}.cls-5{fill:#f99746;}.cls-6{fill:#fff;}.cls-7{fill:#f2f7fe;}.cls-8{fill:#8fadef;}.cls-9{fill:#bbd0ff;}.cls-10{fill:#aec3ff;}.cls-11{fill:#d2e0ff;}.cls-12{fill:#c0d8fb;}.cls-13{fill:#dfebfd;}.cls-14{fill:#b7d3f3;}.cls-15{fill:#d4e4f8;}.cls-16{fill:#c4d9e8;}.cls-17{fill:#dfebf5;}.cls-18{fill:#223156;}.cls-19{fill:#2c3a64;}.cls-20{fill:#163560;}.cls-21{fill:#35488b;}.cls-22{fill:#ffb27d;}.cls-23{fill:#f4a269;}.cls-24{fill:#dde7fe;}.cls-25{fill:#6c7aff;}.cls-26{fill:#cde2fc;}.cls-27{fill:#a4c8f4;}.cls-28{fill:#d9e8fe;}.cls-29{fill:#96c1ea;}.cls-30{fill:#f5fbff;}.cls-31{fill:#bdd8ff;}.cls-32{fill:#f77d48;}.cls-33{fill:#ff8c64;}.cls-34{fill:#9fc1f4;}.cls-35{fill:#ffb93e;}.cls-36{fill:#ffa412;}.cls-37{fill:#8c9df4;}.cls-38{fill:#a9baff;}.cls-39{fill:#cad7ff;}.cls-40{fill:#6980e2;}.cls-41{fill:#0b0755;}.cls-42{fill:#e9f0ff;}.cls-43{fill:#bbc9f9;}.cls-44{fill:#2e3552;}.cls-45{fill:#0b233f;}.cls-46{fill:#f9ddbf;}.cls-47{fill:#ffefe1;}.cls-48{fill:#2a4e96;}</style></defs><g id="Layer_2" data-name="Layer 2"><g id="_Layer_" data-name="&lt;Layer&gt;"><path class="cls-1" d="M145.07,1424.16s-205.28-338-107.8-736.83c66-269.91,428.9-461.64,656.72-376.65,122,45.5,268.08,77.15,456.76-133.38C1465.69-174.11,2429.09-7.2,2248.2,714.17c-87.54,349.09,266.42,361.78,86.06,710.73Z"/><rect class="cls-2" x="2035.39" y="835.54" width="10.13" height="119.44" transform="translate(-116.11 334.76) rotate(-9.12)"/><polygon class="cls-3" points="2027.66 815.53 2025.99 837.1 2035.99 835.49 2027.66 815.53"/><rect class="cls-2" x="2123.44" y="845.37" width="10.13" height="119.44" transform="translate(201.2 -373.67) rotate(10.53)"/><polygon class="cls-3" points="2143.26 825.7 2134.43 845.45 2144.4 847.3 2143.26 825.7"/><rect class="cls-2" x="2110.81" y="810.92" width="10.13" height="119.44" transform="matrix(0.98, 0.18, -0.18, 0.98, 194.71, -371.96)"/><polygon class="cls-3" points="2130.63 791.25 2121.8 811 2131.77 812.85 2130.63 791.25"/><rect class="cls-4" x="2063.5" y="885.28" width="79.82" height="115.04"/><rect class="cls-5" x="2023.59" y="885.28" width="79.82" height="115.04"/><path class="cls-6" d="M2069.71,969.28c-.75,1.8-2.13,11.35-5.07,19.35h0c-1.77,4.81-4.1,9-7.19,10.68-8.25,4.41-22.85-1.55-22.85-1.55s-24.23,4.16-26.66,3.17-6.83-37.47-6.83-37.47,17.88-20.75,19.54-21.41,15.95,5.89,18.32,5.76,15.76-10,19.61-7.89S2070.91,966.39,2069.71,969.28Z"/><path class="cls-7" d="M2039,947.82s-3.7,9.81-4.84,10.72-13.48-16.48-13.48-16.48C2022.31,941.4,2036.6,948,2039,947.82Z"/><path class="cls-7" d="M2058.82,949.46s-16.44,17-16.13,18.49,19.42,11.16,20.07,10.75-4.65-12.36-4.53-14.43S2058.82,949.46,2058.82,949.46Z"/><path class="cls-7" d="M2069.71,969.28c-.75,1.8-2.13,11.35-5.07,19.35h0l1.07-18-7.13-30.7C2062.43,942,2070.91,966.39,2069.71,969.28Z"/><path class="cls-7" d="M2034.6,997.77s-24.23,4.16-26.66,3.17-6.83-37.47-6.83-37.47,6.34,18.48,6.51,19.41,7.56-1.54,7.56-1.54Z"/><polygon class="cls-7" points="2007.46 963.12 2010.71 972.68 2016.29 972.37 2011.92 968.52 2007.46 963.12"/><path class="cls-8" d="M1853.32,1006.39v10.39c0,3.64,1.18,6.61,2.62,6.61H2235c1.44,0,2.62-3,2.62-6.61v-10.39c0-3.63-1.18-6.6-2.62-6.6H1855.94C1854.5,999.79,1853.32,1002.76,1853.32,1006.39Z"/><path class="cls-9" d="M1853.32,1006.39v10.39c0,3.64,1.08,6.61,2.4,6.61h301c1.31,0,2.39-3,2.39-6.61v-10.39c0-3.63-1.08-6.6-2.39-6.6h-301C1854.4,999.79,1853.32,1002.76,1853.32,1006.39Z"/><rect class="cls-10" x="1949.26" y="1023.39" width="269.12" height="392.26" transform="translate(4167.65 2439.04) rotate(180)"/><rect class="cls-11" x="1873.85" y="1023.39" width="269.12" height="392.26" transform="translate(4016.81 2439.04) rotate(180)"/><path class="cls-10" d="M1888.3,1034.47h240.2V1394H1888.3Zm237.61,2.6h-235V1391.4h235Z"/><rect class="cls-10" x="1889.6" y="1153.4" width="237.61" height="2.59"/><rect class="cls-10" x="1889.6" y="1274.65" width="237.61" height="2.59"/><path class="cls-10" d="M1984.06,1057.66h44.09a3.9,3.9,0,0,0,3.89-3.89h0a3.9,3.9,0,0,0-3.89-3.89h-44.09a3.9,3.9,0,0,0-3.89,3.89h0A3.9,3.9,0,0,0,1984.06,1057.66Z"/><path class="cls-10" d="M1984.06,1176.23h44.09a3.9,3.9,0,0,0,3.89-3.89h0a3.9,3.9,0,0,0-3.89-3.89h-44.09a3.9,3.9,0,0,0-3.89,3.89h0A3.9,3.9,0,0,0,1984.06,1176.23Z"/><path class="cls-10" d="M1984.06,1299.83h44.09a3.9,3.9,0,0,0,3.89-3.89h0a3.9,3.9,0,0,0-3.89-3.89h-44.09a3.9,3.9,0,0,0-3.89,3.89h0A3.9,3.9,0,0,0,1984.06,1299.83Z"/><rect class="cls-12" x="1629.17" y="108.84" width="184.32" height="178.82" rx="13.18"/><rect class="cls-13" x="1637.15" y="116.59" width="168.35" height="163.33" rx="12.04"/><path class="cls-14" d="M1717.51,132.91a3.82,3.82,0,1,1,3.82,3.82A3.82,3.82,0,0,1,1717.51,132.91Z"/><path class="cls-14" d="M1748.32,138.31a3.82,3.82,0,1,1,1.48,5.19A3.82,3.82,0,0,1,1748.32,138.31Z"/><path class="cls-14" d="M1774.71,159.28a3.82,3.82,0,1,1-1.14,5.27A3.81,3.81,0,0,1,1774.71,159.28Z"/><path class="cls-14" d="M1787.79,191.73a3.82,3.82,0,1,1-3.82,3.82A3.82,3.82,0,0,1,1787.79,191.73Z"/><path class="cls-14" d="M1781.11,229.4a3.82,3.82,0,1,1-5.4,0A3.82,3.82,0,0,1,1781.11,229.4Z"/><path class="cls-14" d="M1757.13,253.44a3.82,3.82,0,1,1-5.4,0A3.8,3.8,0,0,1,1757.13,253.44Z"/><path class="cls-14" d="M1717.51,265.83a3.82,3.82,0,1,1,3.82,3.82A3.82,3.82,0,0,1,1717.51,265.83Z"/><path class="cls-14" d="M1694.21,138.31a3.82,3.82,0,1,0-1.48,5.19A3.82,3.82,0,0,0,1694.21,138.31Z"/><path class="cls-14" d="M1667.82,159.28a3.82,3.82,0,1,0,1.14,5.27A3.81,3.81,0,0,0,1667.82,159.28Z"/><path class="cls-14" d="M1654.75,191.73a3.82,3.82,0,1,0,3.81,3.82A3.82,3.82,0,0,0,1654.75,191.73Z"/><path class="cls-14" d="M1661.42,229.4a3.82,3.82,0,1,0,5.4,0A3.82,3.82,0,0,0,1661.42,229.4Z"/><path class="cls-14" d="M1685.4,253.44a3.82,3.82,0,1,0,5.4,0A3.82,3.82,0,0,0,1685.4,253.44Z"/><path class="cls-14" d="M1720.3,195.55a3.82,3.82,0,1,1,3.82,3.82A3.82,3.82,0,0,1,1720.3,195.55Z"/><rect class="cls-14" x="1723.59" y="147.85" width="1.04" height="47.7"/><rect class="cls-14" x="1720.2" y="184" width="32.15" height="3.13" transform="translate(255.98 1111.73) rotate(-38.13)"/><path class="cls-10" d="M353.87,1151.89s42.32-49.37,2.61-80.74c0,0-29-17.56-52.66-16.13,0,0,33.51,56.2,22.67,61.79s-32.83-65.32-32.83-65.32-66-6.4-87.24,3.81c0,0,56.43,46.18,44.55,48.93s-72.84-42.58-72.84-42.58-61.43,10.46-58.16,47.94,24.44,49.05,33.75,48.05,63.73-21.77,64.91-14.15-31.57,32.54-54.51,33.7c0,0,43.31,47.77,72.1,34s31.24-35.64,49.18-43.83,33.27-8.18,25.86.18-39.89,16.49-50.15,34.64-19.47,30.39,10.32,25.91,78.19-26.27,80.31-51.23Z"/><path class="cls-10" d="M150.16,1110.6s166.86-6.43,203.71,41.29c0,0,8.15,24.4,33.23,46.63l3.9,10.65s-28.91-30.48-39.26-32.33C351.74,1176.84,367.92,1117.72,150.16,1110.6Z"/><path class="cls-10" d="M387.1,1198.52s35.81,26.49,38.3,73.81l-6.5.59s-11.44-48.94-32.12-68.08S387.1,1198.52,387.1,1198.52Z"/><path class="cls-15" d="M501.84,1089.8s-67.33-37.7-35.91-88.87c0,0,25.13-31.41,52.06-39.49,0,0-14.36,76.3,0,78.09s9.87-86.17,9.87-86.17,70.92-34.11,98.74-31.42c0,0-44,74.51-29.62,72.71s63.73-77.19,63.73-77.19,72.71-13.47,84.38,29.62-7.19,64.62-18,67.32-79.88,1.79-78.09,10.77,48.47,23.34,74.5,15.26c0,0-28.72,70.91-66.42,67.32s-49.37-26.93-72.71-28.73-40.39,4.49-28.72,10.78,51.16,2.06,70,18.08,34.11,25.9-.89,33.08-97.84,2.69-110.41-24.24Z"/><path class="cls-15" d="M711.87,960.54s-188.49,61-210,129.26c0,0,.89,30.52-18,65.52v13.47s19.75-45.78,30.52-52.07C514.4,1116.72,472.21,1057.48,711.87,960.54Z"/><path class="cls-15" d="M483.88,1155.32s-29.07,44.14-12.49,97.88l7.47-2s-7.26-59.19,7.95-89S483.88,1155.32,483.88,1155.32Z"/><path class="cls-11" d="M394.73,1037.8s88.74-49.69,47.33-117.13c0,0-33.13-41.42-68.62-52.07,0,0,18.93,100.58,0,102.94s-13-113.59-13-113.59S267,813,230.27,816.54c0,0,58,98.21,39,95.84s-84-101.75-84-101.75-95.84-17.75-111.22,39,9.47,85.19,23.67,88.74,105.3,2.37,102.94,14.2-63.9,30.77-98.21,20.12c0,0,37.86,93.47,87.56,88.74s65.07-35.5,95.84-37.86,53.24,5.91,37.86,14.19-67.44,2.72-92.29,23.84-45,34.14,1.18,43.61,129,3.55,145.54-32Z"/><path class="cls-11" d="M117.86,867.42s248.48,80.46,276.87,170.38c0,0-1.18,40.23,23.67,86.38v17.75s-26-60.35-40.23-68.63C378.17,1073.3,433.78,995.21,117.86,867.42Z"/><path class="cls-11" d="M418.4,1124.18s38.32,58.19,16.47,129l-9.86-2.65s9.57-78-10.48-117.25S418.4,1124.18,418.4,1124.18Z"/><path class="cls-10" d="M397.72,1406.8A173.83,173.83,0,0,1,223.89,1233H571.55A173.82,173.82,0,0,1,397.72,1406.8Z"/><path class="cls-10" d="M221.49,1415.65H574a21.44,21.44,0,0,0-21.44-21.45H242.94a21.45,21.45,0,0,0-21.45,21.45Z"/><rect class="cls-11" x="219.94" y="1232.97" width="357.33" height="5.33" transform="translate(797.21 2471.28) rotate(180)"/><path class="cls-6" d="M755.83,1389.3c-.62,1.53-1.74,9.61-4.18,16.37h0c-1.48,4.08-3.42,7.66-6,9.07-7,3.77-19.32-1.2-19.32-1.2s-20.45,3.64-22.51,2.81-6-31.62-6-31.62,15-17.63,16.41-18.2,13.51,4.91,15.51,4.78,13.27-8.49,16.53-6.76S756.83,1386.85,755.83,1389.3Z"/><path class="cls-7" d="M729.75,1371.32s-3.08,8.31-4,9.08-11.47-13.86-11.47-13.86C715.64,1366,727.75,1371.45,729.75,1371.32Z"/><path class="cls-7" d="M746.53,1372.61s-13.81,14.45-13.54,15.7,16.46,9.34,17,9-4-10.42-3.91-12.18S746.53,1372.61,746.53,1372.61Z"/><path class="cls-7" d="M755.83,1389.3c-.62,1.53-1.74,9.61-4.18,16.37h0l.82-15.23-6.18-25.9C749.55,1366.29,756.83,1386.85,755.83,1389.3Z"/><path class="cls-7" d="M726.3,1413.55s-20.45,3.64-22.51,2.81-6-31.62-6-31.62,5.46,15.58,5.6,16.36,6.38-1.33,6.38-1.33Z"/><polygon class="cls-7" points="703.2 1384.41 705.99 1392.47 710.71 1392.18 707 1388.95 703.2 1384.41"/><path class="cls-6" d="M1202.83,1389.3c-.63,1.53-1.74,9.61-4.19,16.37h0c-1.47,4.08-3.42,7.66-6,9.07-6.95,3.77-19.31-1.2-19.31-1.2s-20.45,3.64-22.52,2.81-6-31.62-6-31.62,15-17.63,16.4-18.2,13.51,4.91,15.51,4.78,13.27-8.49,16.53-6.76S1203.83,1386.85,1202.83,1389.3Z"/><path class="cls-7" d="M1176.74,1371.32s-3.08,8.31-4,9.08-11.48-13.86-11.48-13.86C1162.63,1366,1174.74,1371.45,1176.74,1371.32Z"/><path class="cls-7" d="M1193.53,1372.61s-13.81,14.45-13.54,15.7,16.46,9.34,17,9-4-10.42-3.9-12.18S1193.53,1372.61,1193.53,1372.61Z"/><path class="cls-7" d="M1202.83,1389.3c-.63,1.53-1.74,9.61-4.19,16.37h0l.82-15.23-6.18-25.9C1196.54,1366.29,1203.83,1386.85,1202.83,1389.3Z"/><path class="cls-7" d="M1173.3,1413.55s-20.45,3.64-22.52,2.81-6-31.62-6-31.62,5.45,15.58,5.6,16.36,6.38-1.33,6.38-1.33Z"/><polygon class="cls-7" points="1150.19 1384.41 1152.98 1392.47 1157.7 1392.18 1153.99 1388.95 1150.19 1384.41"/><path class="cls-6" d="M1994.61,1385.42c-.84,1.73-2.71,11-6,18.72h0c-2,4.63-4.52,8.65-7.65,10.1-8.33,3.89-22.34-2.77-22.34-2.77s-24,2.77-26.35,1.67-4.67-37.15-4.67-37.15,18.68-19.41,20.35-20,15.34,6.65,17.67,6.65,16-8.92,19.68-6.68S1995.94,1382.65,1994.61,1385.42Z"/><path class="cls-7" d="M1965.59,1362.69s-4.17,9.43-5.33,10.26-12.34-16.91-12.34-16.91C1949.58,1355.48,1963.26,1362.69,1965.59,1362.69Z"/><path class="cls-7" d="M1985,1365.37s-17.06,15.8-16.84,17.28,18.45,12,19.12,11.65-3.89-12.39-3.67-14.42S1985,1365.37,1985,1365.37Z"/><path class="cls-7" d="M1994.61,1385.42c-.84,1.73-2.71,11-6,18.72h0l2-17.62-5.34-30.52C1988.94,1358.26,1995.94,1382.65,1994.61,1385.42Z"/><path class="cls-7" d="M1958.59,1411.48s-24,2.77-26.35,1.67-4.67-37.15-4.67-37.15,5.23,18.48,5.34,19.4,7.5-1.09,7.5-1.09Z"/><polygon class="cls-7" points="1933.83 1376 1936.49 1385.56 1942 1385.56 1937.91 1381.54 1933.83 1376"/><path class="cls-6" d="M1932.72,977.59c-.58,1.23-1.66,7.7-3.94,13.14h0c-1.38,3.27-3.19,6.16-5.59,7.31-6.4,3.08-17.72-.79-17.72-.79s-18.79,3.09-20.68,2.45-5.29-25.24-5.29-25.24,13.88-14.24,15.17-14.7,12.37,3.8,14.21,3.68,12.22-6.92,15.21-5.56S1933.65,975.62,1932.72,977.59Z"/><path class="cls-16" d="M1908.88,963.44s-2.88,6.67-3.76,7.3-10.45-11-10.45-11C1896,959.29,1907,963.56,1908.88,963.44Z"/><path class="cls-17" d="M1924.28,964.32S1911.52,976,1911.76,977s15,7.32,15.56,7-3.6-8.3-3.51-9.71S1924.28,964.32,1924.28,964.32Z"/><path class="cls-16" d="M1932.72,977.59c-.58,1.23-1.66,7.7-3.94,13.14h0l.84-12.18-5.52-20.67C1927.08,959.24,1933.65,975.62,1932.72,977.59Z"/><path class="cls-17" d="M1905.47,997.25s-18.79,3.09-20.68,2.45-5.29-25.24-5.29-25.24,4.92,12.41,5,13,5.86-1.13,5.86-1.13Z"/><polygon class="cls-17" points="1884.43 974.14 1886.94 980.57 1891.28 980.29 1887.89 977.74 1884.43 974.14"/><path class="cls-18" d="M913.89,1244.45s14.37,38.47,11.32,52.75,1.87,41.94-4,54.31S905,1381.87,915,1386.42c3.8,1.73,48-32.57,50.55-42.68s4.5-40,13-56.18,1.37-29.28-10.86-35.24-29.27-38.6-29.27-38.6Z"/><path class="cls-10" d="M1045.9,1417.07h-.65c-5.25-.1-9.31-4.39-8.81-9.33l35-350.15,30.6,2.73-50.34,352A5.7,5.7,0,0,1,1045.9,1417.07Z"/><path class="cls-10" d="M1383.5,1417.07h.64c5.26-.1,9.32-4.39,8.82-9.33l-35.06-350.15-30.59,2.73,50.34,352A5.69,5.69,0,0,0,1383.5,1417.07Z"/><path class="cls-10" d="M798.55,1417.07h-.64c-5.26-.1-9.32-4.39-8.82-9.33l35.06-350.15,30.59,2.73-50.34,352A5.7,5.7,0,0,1,798.55,1417.07Z"/><path class="cls-11" d="M1373.06,1006.64l62.23-307.33c8-41.61-26.49-79.66-71.26-78.64l-120,2.74a94.82,94.82,0,0,0-88.91,68.44l-91,314.79Z"/><path class="cls-10" d="M1335.41,1006.64l62.23-307.33c8-41.61-26.49-79.66-71.26-78.64l-120,2.74a94.82,94.82,0,0,0-88.91,68.44l-91,314.79Z"/><path class="cls-11" d="M880.85,1006.64h492.21a0,0,0,0,1,0,0v38.71a17.35,17.35,0,0,1-17.35,17.35H880.85a17.35,17.35,0,0,1-17.35-17.35V1024A17.35,17.35,0,0,1,880.85,1006.64Z"/><rect class="cls-10" x="816.18" y="1006.64" width="330.66" height="56.05" rx="13.97"/><path class="cls-19" d="M1152.55,880.89s-252.48-4-286.16,17.41,33.67,363.54,33.67,363.54,65.3,2.08,70.49-15.2c0,0-11.75-160.31-1.47-188S973,992.57,973,992.57s127.72,19.49,168.28,9.89S1152.55,880.89,1152.55,880.89Z"/><path class="cls-20" d="M871,1304.15s-13.85,38.67-25.39,47.6S820,1385,807.54,1390.69s-32,12.69-27.31,22.63c1.79,3.77,57.7,6.1,66.16,0s29.23-27.63,46.15-34.55,19.94-21.49,14.44-33.93,2.54-48.38,2.54-48.38Z"/><path class="cls-21" d="M1295.72,871.9S996.11,918.78,973,945.45s-114.5,373.92-114.5,373.92,26.67,15,51,1.12c0,0,69.6-117.7,100.35-154.62s42.55-151.16,47.61-152.31,166.3,19.47,225.7-19.84C1318.18,970.56,1295.72,871.9,1295.72,871.9Z"/><path class="cls-22" d="M1017.4,807.58s-10.62.76-18.07-3.93c-2.5-1.58-20.1-7.68-28.15-4s-25,16.11-20.37,19.78,19.63,1.53,23.28.34,9.93,7.92,16.52,7.43,16-4.06,30-1.88,11.6-17.94,9.56-19.65S1017.4,807.58,1017.4,807.58Z"/><path class="cls-22" d="M1002.62,806.32s-12-9.72-15.78-13.18-5.13-3-5.56-.83,9,9.61,6.11,15.62S1004.07,810.2,1002.62,806.32Z"/><path class="cls-20" d="M1275.37,715l-.79-1.44c14.74-8.08,26-17.55,33.33-28.16a57.29,57.29,0,0,0,10.31-27.29,56.39,56.39,0,0,0-4.69-28.85l0-1.69c.27.51,9.35,13.33,7.67,30.27a61.16,61.16,0,0,1-10.65,28.66C1303,697.28,1290.34,706.76,1275.37,715Z"/><path class="cls-22" d="M1023.23,535.3s4.2-10.71,4.71-13.39-4.17-19.89.86-26.32,20-18.92,22.23-13.94-2.94,18-4.81,21,4.93,10.66,3,16.46-9.48,15-10.6,28-16.34,5-17.43,2.75S1023.23,535.3,1023.23,535.3Z"/><path class="cls-20" d="M1076.35,448c25.53-8.71,33.18-7.37,49.18-7.73,23.41-.53,48.81-10,61.12,15,18.63,37.76,30.87,7.8,72.56,25.13s22.63,54.25,18.25,64.59c-19.2,45.38,31,63.76,39.44,89.71s-22.4,72.18-62.26,72.75-225-22.22-207.23-84.24-14.93-95.73-17.62-111.84C1026.37,490.86,1040.19,460.35,1076.35,448Z"/><path class="cls-5" d="M1307.67,896.81q-35.87,5-66.72,9.48c-41.06,5.94-114.33-3-114.64-13-.49-16.43,5.22-33.8,6.42-50.11.57-7.8.12-15.35-2.53-22.44-.9-2.39-2-5.13-3.26-8.15-2.56-6.17-5.73-13.51-8.92-21.39-1.8-4.46-3.6-9.1-5.3-13.81-.77-2.09-1.5-4.2-2.2-6.3-.16-.47-.32-1-.47-1.41-.51-1.54-1-3.06-1.46-4.6s-.87-2.91-1.28-4.37a132.45,132.45,0,0,1-3.35-15.16,70.31,70.31,0,0,1-.91-11.1c0-15.68-8.4-20.17-18.75-21.68-4.59-.67-9.53-.77-14.28-1h0a66.8,66.8,0,0,1-10.66-1.12c-6.92-1.47-14.18-39.7-5.16-59.26,2.78-6,7.11-10.29,13.48-11.15h.07a233.17,233.17,0,0,0,45.42-10.9c4-1.47,56.41-17.48,59.72-17.83,27.72-2.82,52.55-5.64,78.34,14.52C1313.76,675,1307.86,896.43,1307.67,896.81Z"/><path class="cls-20" d="M1038.18,530.29c-4.94-4.21-15.33-14-15.85-26.9-.45-11.14,5.1-22.56,16.48-33.95,18.11-18.13,36.3-26.1,48.38-29.59,13.12-3.8,38.21,1.86,38.58,1.89l-8,2c-12.93-5-43.76-7.82-77.82,26.88-10.94,11.15-15.38,20.21-15,30.86.5,12.28,8.08,18.8,12.81,22.83.24.2,6.34,1.7,6.34,1.7S1038.32,530.4,1038.18,530.29Z"/><path class="cls-22" d="M1144.6,645.13c-23.27,6-26.51-1.87-29.68-10.41-1.31-3.54-3.12-9.76-5.25-17.23-.88-3.13-1.83-6.48-2.83-9.94-1.9-6.67-4.11-13.47-5.89-18.76-1.94-5.77-3.38-9.74-3.38-9.74l44.49-22.7,2.65-1.35c10.25,36.66,25.37,50.46,28.1,56.43C1178.56,624,1159.86,641.16,1144.6,645.13Z"/><path class="cls-23" d="M1146.1,573.14c-1.92,14.88-10.56,36-36.43,44.35-.88-3.13-1.83-6.48-2.83-9.94-1.9-6.67-4.11-13.47-5.89-18.76Z"/><path class="cls-22" d="M1097.73,609.22s62.38-17.87,50.65-56.54-11.57-67-51.89-57.25-43.54,26.86-42.77,40.72S1081.21,612.87,1097.73,609.22Z"/><path class="cls-20" d="M1091,506.46c-17.36,9.69-20.44,26.26-39.41,28.4-15.56,1.76-23.37-41.41,9.14-58.14,39.44-20.29,34.29-34.82,51.3-36.38,28.09-2.57,48.47,90.82,46.92,92.68s-8.25,15.9-8.25,15.9-10.47-6.45-9.6-10.45c2.82-12.93-7.22-24.31-15.47-14.54C1118.71,532.18,1103.46,499.53,1091,506.46Z"/><path class="cls-5" d="M1044.28,567.86s-5.37,17.33-15.09,41.55h0c-3.25,8.09-7,17-11.16,26.19q-2.38,5.26-4.65,9.85l-.14.27c-14.35,29-25.68,38.51-38.85,40.72-5.52.93-11,1.39-15.5,0-7.45-2.21-12.47-9.31-11.4-27.24,1.72-28.86,77.74-129.17,77.74-129.17,6.39,1.79,10.73,8.25,13.63,15.35A90.71,90.71,0,0,1,1044.28,567.86Z"/><path class="cls-5" d="M1102.13,636.82S989.78,648.15,975,649.47s-18.33,36.18-18.33,36.18,70.94,28.06,144,27.47S1102.13,636.82,1102.13,636.82Z"/><path class="cls-20" d="M1284.83,506.7c-3.28-15.56-13-31.34-27.65-36.74-11.13-4.12-25.72-5.13-42.19-2.9-7.91,1.07-14.93-.66-20.85-5.14-4.35-3.29-8.94-9.48-9.12-9.75h0l1.92,5.31c-2.46,3.75.75,4.1,5.51,7.72h0c4.39,3.34,12.22,5.31,22.82,3.88,16.13-2.18,28.3-.66,39.12,3.35,11.66,4.31,20.24,11.21,24.55,22.07h0a41.58,41.58,0,0,1,2,6.7l3.69,5.2h0Z"/><path class="cls-4" d="M1029.18,609.42c-3.25,8.09-7,17-11.16,26.19q-2.38,5.26-4.65,9.85a12.56,12.56,0,0,1-1.4.4h0a26.92,26.92,0,0,1-8.14.81c-7.26-.69-5.05-6.87.7-10.9C1011.77,630.69,1028.89,609.78,1029.18,609.42Z"/><path class="cls-4" d="M1234.92,739.3s-35.72,92.26-102.19,103.91c.57-7.8.12-15.35-2.53-22.44-.9-2.39-2-5.13-3.26-8.15,3.94-1.87,6.58-3,6.58-3Z"/><path class="cls-4" d="M1178.93,705.18l-32.84,86.07h-28l0,0c-1.8-4.46-3.6-9.1-5.3-13.81-.77-2.09-1.5-4.2-2.2-6.3-.16-.47-.32-1-.47-1.41C1129.38,763.27,1163.37,729.12,1178.93,705.18Z"/><path class="cls-5" d="M1225,636.82s-78.87,126.42-112.25,140.6c-19,8.08-104.58,26.47-104.58,26.47l1.73,19s122.6,4.5,136.23,0c40.11-13.24,105.11-100.58,105.11-100.58Z"/><rect class="cls-21" x="1308.57" y="987.52" width="60.32" height="204.11"/><rect class="cls-19" x="1368.89" y="987.52" width="145.46" height="204.11"/><ellipse class="cls-24" cx="1338.73" cy="1013.01" rx="10.07" ry="10.56"/><path class="cls-25" d="M1331.61,1013a7.13,7.13,0,1,1,7.12,7.47A7.3,7.3,0,0,1,1331.61,1013Z"/><rect class="cls-8" x="1324.76" y="1038.45" width="28.37" height="53.76"/><rect class="cls-26" x="1439.76" y="1118.13" width="113.99" height="38.54"/><rect class="cls-27" x="1553.75" y="1118.13" width="113.99" height="38.54"/><rect class="cls-8" x="1439.77" y="1136.98" width="28.44" height="0.84"/><rect class="cls-8" x="1475.18" y="1125.12" width="78.57" height="0.84"/><rect class="cls-8" x="1439.77" y="1147.36" width="50.29" height="0.84"/><rect class="cls-28" x="1404.41" y="1079.59" width="113.99" height="38.54"/><rect class="cls-29" x="1518.4" y="1079.59" width="113.99" height="38.54"/><rect class="cls-8" x="1404.41" y="1098.44" width="28.45" height="0.84"/><rect class="cls-8" x="1439.83" y="1086.58" width="78.57" height="0.84"/><rect class="cls-8" x="1404.41" y="1108.82" width="50.29" height="0.84"/><rect class="cls-15" x="1468.21" y="970.94" width="113.99" height="38.54"/><rect class="cls-27" x="1582.2" y="970.94" width="113.99" height="38.54"/><rect class="cls-8" x="1468.21" y="989.79" width="28.45" height="0.84"/><rect class="cls-8" x="1503.63" y="977.93" width="78.57" height="0.84"/><rect class="cls-8" x="1468.21" y="999.63" width="50.29" height="0.84"/><rect class="cls-30" x="1432.86" y="932.4" width="113.99" height="38.54"/><rect class="cls-31" x="1546.84" y="932.4" width="113.99" height="38.54"/><rect class="cls-8" x="1432.86" y="951.25" width="28.45" height="0.84"/><rect class="cls-8" x="1540.96" y="951.25" width="28.45" height="0.84"/><rect class="cls-8" x="1530.45" y="939.39" width="78.57" height="0.84"/><rect class="cls-8" x="1432.86" y="961.63" width="50.29" height="0.84"/><rect class="cls-31" x="1561.27" y="1009.43" width="113.99" height="70.16" transform="translate(3236.52 2089.01) rotate(180)"/><rect class="cls-30" x="1447.28" y="1009.43" width="113.99" height="70.16" transform="translate(3008.55 2089.01) rotate(180)"/><rect class="cls-8" x="1646.81" y="1043.94" width="28.44" height="1.13"/><rect class="cls-21" x="1483.15" y="1022.62" width="156.69" height="0.6"/><rect class="cls-8" x="1624.97" y="1062.83" width="50.29" height="1.13"/><rect class="cls-21" x="1528.17" y="1035.19" width="54.02" height="0.6"/><rect class="cls-32" x="1352.27" y="1156.81" width="335.61" height="260.09"/><rect class="cls-33" x="1241.94" y="1156.81" width="266.09" height="260.09"/><rect class="cls-19" x="1317.59" y="1181.94" width="84.44" height="17.33" rx="7.95"/><polygon class="cls-34" points="1404.23 1316.77 1341.39 1305.19 1352.42 1239.28 1415.26 1250.86 1404.23 1316.77"/><polygon class="cls-8" points="1413.48 1261.51 1350.64 1249.93 1352.42 1239.28 1415.26 1250.86 1413.48 1261.51"/><polygon class="cls-35" points="1495.88 1250.78 1434.17 1267.78 1417.96 1203.06 1479.67 1186.05 1495.88 1250.78"/><polygon class="cls-36" points="1482.29 1196.51 1420.58 1213.52 1417.96 1203.06 1479.67 1186.05 1482.29 1196.51"/><rect class="cls-37" x="1437.77" y="616.73" width="279" height="206.14"/><rect class="cls-38" x="1346.05" y="616.73" width="221.21" height="206.14"/><rect class="cls-21" x="1408.94" y="636.64" width="70.2" height="13.74" rx="6.45"/><rect class="cls-39" x="1335.2" y="581.65" width="232.06" height="45.41"/><rect class="cls-40" x="1567.26" y="581.65" width="156.47" height="45.41"/><rect class="cls-33" x="1474.93" y="667.88" width="73.37" height="73.37" transform="translate(-129.41 407.17) rotate(-14.72)"/><rect class="cls-32" x="1467.11" y="668.89" width="73.37" height="11.86" transform="matrix(0.97, -0.25, 0.25, 0.97, -122.1, 404.21)"/><polygon class="cls-32" points="1489.59 489.11 1547.77 442.27 1634.08 452.82 1634.08 489.11 1489.59 489.11"/><rect class="cls-33" x="1451.88" y="393.45" width="47.29" height="144.49" transform="translate(1941.21 -1009.83) rotate(90)"/><path class="cls-24" d="M1529.72,458.33a7.48,7.48,0,1,1-7.48,7.47A7.46,7.46,0,0,1,1529.72,458.33Z"/><path class="cls-41" d="M1529.72,461.62a4.18,4.18,0,1,1-4.18,4.18A4.18,4.18,0,0,1,1529.72,461.62Z"/><rect class="cls-31" x="1478.81" y="443.61" width="21.07" height="44.72" transform="translate(1955.32 -1023.38) rotate(90)"/><rect class="cls-24" x="1411.95" y="535.49" width="143.19" height="46.16"/><rect class="cls-37" x="1555.15" y="535.49" width="143.2" height="46.16"/><rect class="cls-37" x="1411.95" y="558.07" width="35.73" height="1"/><rect class="cls-37" x="1456.44" y="543.87" width="98.7" height="1"/><rect class="cls-37" x="1411.95" y="570.5" width="63.17" height="1"/><rect class="cls-42" x="1367.54" y="489.33" width="143.2" height="46.16"/><rect class="cls-43" x="1510.74" y="489.33" width="143.19" height="46.16"/><rect class="cls-8" x="1367.54" y="511.91" width="35.73" height="1"/><rect class="cls-8" x="1412.03" y="497.71" width="98.7" height="1"/><rect class="cls-8" x="1367.54" y="524.34" width="63.17" height="1"/><rect class="cls-44" y="1415.65" width="2450.62" height="11.41" rx="3.68"/><path class="cls-6" d="M1848,657.23s102.21-8.12,184.24-130.17l-62.58-135.61s-83.6,108.43-153.75,116.77Z"/><path class="cls-6" d="M1448.88,348.91s-76.23-6.05-137.41-97.09l46.67-101.14s62.35,80.87,114.67,87.09Z"/><path class="cls-6" d="M547.09,766.59S462.17,759.84,394,658.43l52-112.68s69.46,90.09,127.76,97Z"/><path class="cls-6" d="M863.33,1204.64S835,1274.93,730.79,1305.8L649,1231.69s95-35,116.35-82.62Z"/><path class="cls-45" d="M911,822.86H1051.6a11.2,11.2,0,0,0-11.21-11.2H911Z"/><polygon class="cls-45" points="911.39 669.73 694 669.73 746.14 822.86 964.94 822.86 911.39 669.73"/><polygon class="cls-20" points="690.79 669.72 742.94 822.86 961.74 822.86 908.19 669.72 690.79 669.72"/><path class="cls-6" d="M808,744.88c1.35,5.85,7.19,10.59,13,10.59s9.5-4.74,8.15-10.59-7.19-10.6-13-10.6S806.65,739,808,744.88Z"/><rect class="cls-42" x="1256.15" y="781.02" width="127.29" height="46.16"/><rect class="cls-40" x="1383.44" y="781.02" width="127.29" height="46.16"/><rect class="cls-8" x="1256.15" y="803.59" width="31.76" height="1"/><rect class="cls-8" x="1295.7" y="789.39" width="87.74" height="1"/><rect class="cls-8" x="1256.15" y="816.02" width="56.16" height="1"/><rect class="cls-4" x="1599.05" y="656.17" width="51.67" height="166.69"/><rect class="cls-5" x="1650.73" y="656.17" width="124.61" height="166.69"/><circle class="cls-24" cx="1624.89" cy="676.99" r="8.62" transform="translate(-2.78 1347.25) rotate(-45)"/><path class="cls-25" d="M1618.79,677a6.1,6.1,0,1,1,6.1,6.1A6.1,6.1,0,0,1,1618.79,677Z"/><rect class="cls-8" x="1612.93" y="697.77" width="24.3" height="43.91"/><polygon class="cls-40" points="654.86 810.75 660.66 810.75 660.66 710.97 601.37 559.68 707.23 477.65 703.68 473.07 594.39 557.76 654.86 712.06 654.86 810.75"/><path class="cls-40" d="M719.19,488.1h0a5.91,5.91,0,0,0,1.41-8.24l-8.82-12.44a5.91,5.91,0,0,0-8.24-1.4h0a5.91,5.91,0,0,0-1.41,8.24L711,486.7A5.91,5.91,0,0,0,719.19,488.1Z"/><path class="cls-40" d="M606.87,557.94a7.67,7.67,0,1,0-7.67,7.67A7.66,7.66,0,0,0,606.87,557.94Z"/><path class="cls-40" d="M629.63,807.88h58.31a0,0,0,0,1,0,0v5.46a11.14,11.14,0,0,1-11.14,11.14H640.34a10.71,10.71,0,0,1-10.71-10.71v-5.89A0,0,0,0,1,629.63,807.88Z" transform="translate(1317.56 1632.36) rotate(180)"/><rect class="cls-40" x="651.67" y="718.03" width="12.25" height="92.72" transform="translate(1315.58 1528.79) rotate(180)"/><path class="cls-5" d="M706.07,574.17q.4.47.84.9l.06.07c.26.3.54.59.81.87,7.92,6.87,34.17-5.44,59.56-28.15s40.54-47.41,34.6-56.05c-.25-.31-.51-.61-.78-.91l0-.06c-.26-.32-.54-.63-.81-.94a63.21,63.21,0,0,0-94.23,84.27Z"/><path class="cls-46" d="M706.9,575.08l.06.06.26.32a5.94,5.94,0,0,0,.57.55c7.91,6.86,34.16-5.44,59.54-28.15s40.55-47.41,34.61-56a6.38,6.38,0,0,0-.49-.62,1.33,1.33,0,0,0-.29-.29l-.06-.08c-5.39-5.1-20-.55-37.11,10.52a187.29,187.29,0,0,0-22.65,17.44A198.58,198.58,0,0,0,725.19,535C709.79,552.48,702,568.62,706.9,575.08Z"/><path class="cls-47" d="M725.19,535a25.78,25.78,0,0,0,16.5,5.9A26.07,26.07,0,0,0,764,501.35a187.29,187.29,0,0,0-22.65,17.44A198.58,198.58,0,0,0,725.19,535Z"/><rect class="cls-48" x="570.29" y="822.86" width="1230.01" height="34.45" rx="16.71"/><path class="cls-48" d="M592.65,1424.84l-.4,0a8.75,8.75,0,0,1-7.72-9.73l74.32-575,41.65,1.19-99.88,577.78A7.15,7.15,0,0,1,592.65,1424.84Z"/><path class="cls-48" d="M1804,1424.84l.41,0a8.75,8.75,0,0,0,7.72-9.73l-74.33-575-41.65,1.19,99.89,577.78A7.14,7.14,0,0,0,1804,1424.84Z"/></g></g></svg>