<svg width="37" height="24" viewBox="0 0 37 24" fill="none" xmlns="http://www.w3.org/2000/svg">
<path d="M36.0484 0.729205L35.9763 0.612954C35.9385 0.538268 35.8855 0.470236 35.8201 0.412159C35.7904 0.375332 35.7538 0.343177 35.712 0.317046C35.644 0.25863 35.5672 0.208832 35.4837 0.169091H35.3515C35.2 0.0797779 35.0274 0.0219541 34.8468 0H1.20218C1.05808 0.00227749 0.915629 0.0273358 0.781621 0.0739775H0.649446C0.565893 0.113718 0.489051 0.163516 0.421143 0.221932L0.313 0.317046C0.247559 0.375123 0.194634 0.443155 0.156793 0.517841L0.0846971 0.634091C0.0240831 0.768457 -0.00454428 0.912333 0.000585405 1.05682V22.1932C0.000585405 22.4735 0.127181 22.7423 0.352524 22.9405C0.577867 23.1387 0.883497 23.25 1.20218 23.25H34.8468C35.1655 23.25 35.4711 23.1387 35.6965 22.9405C35.9218 22.7423 36.0484 22.4735 36.0484 22.1932V1.05682C36.0678 0.948277 36.0678 0.837745 36.0484 0.729205V0.729205ZM31.0978 2.11364L18.0245 10.3251L4.95115 2.11364H31.0978ZM2.40377 21.1364V3.10705L17.3276 12.481C17.5311 12.6085 17.7747 12.6769 18.0245 12.6769C18.2743 12.6769 18.5179 12.6085 18.7214 12.481L33.6452 3.10705V21.1364H2.40377Z" fill="black"/>
</svg>
