<svg width="38" height="37" viewBox="0 0 38 37" fill="none" xmlns="http://www.w3.org/2000/svg">
<ellipse cx="19" cy="18.5" rx="19" ry="18.5" fill="#EFEFF9"/>
<path d="M27.4333 12H11.5667C11.4164 12 11.2722 12.0632 11.166 12.1758C11.0597 12.2883 11 12.441 11 12.6001V26.4027C11.0005 26.5126 11.0295 26.6203 11.0838 26.714C11.1382 26.8077 11.2158 26.8838 11.3081 26.9339C11.4005 26.9841 11.5042 27.0064 11.6077 26.9984C11.7113 26.9905 11.8108 26.9525 11.8953 26.8887L15.6863 24.0022H27.4333C27.5836 24.0022 27.7278 23.939 27.834 23.8264C27.9403 23.7139 28 23.5613 28 23.4021V12.6001C28 12.441 27.9403 12.2883 27.834 12.1758C27.7278 12.0632 27.5836 12 27.4333 12V12Z" fill="#6263D5"/>
</svg>
