<svg width="40" height="40" viewBox="0 0 40 40" fill="none" xmlns="http://www.w3.org/2000/svg">
<path d="M20 3.33331C10.8 3.33331 3.33331 10.8 3.33331 20C3.33331 29.2 10.8 36.6666 20 36.6666C29.2 36.6666 36.6666 29.2 36.6666 20C36.6666 10.8 29.2 3.33331 20 3.33331ZM33.2166 18.3333H21.6666V6.78331C27.6833 7.53331 32.4666 12.3166 33.2166 18.3333ZM6.66665 20C6.66665 13.2166 11.7666 7.59998 18.3333 6.78331V33.2166C11.7666 32.4 6.66665 26.7833 6.66665 20ZM21.6666 33.2166V21.6666H33.2166C32.4666 27.6833 27.6833 32.4666 21.6666 33.2166Z" fill="#F8F8F8"/>
</svg>
