<svg width="30" height="30" viewBox="0 0 30 30" fill="none" xmlns="http://www.w3.org/2000/svg">
<path d="M11.7412 23.4827C14.6636 23.4827 17.4223 22.4212 19.5795 20.4823L21.817 22.7196L21.7759 22.7604C21.188 23.3486 21.188 24.3054 21.7759 24.8936L26.4402 29.558C26.7249 29.843 27.1037 30 27.5068 30C27.9099 30 28.2884 29.843 28.5734 29.5583L29.5577 28.574C29.843 28.2894 30 27.9105 30 27.5074C30 27.1044 29.843 26.7255 29.558 26.4412L24.893 21.7759C24.608 21.4912 24.2295 21.3345 23.8264 21.3345C23.4233 21.3345 23.0448 21.4912 22.7601 21.7762L22.7193 21.817L20.4817 19.5798C22.4209 17.423 23.4823 14.6639 23.4823 11.7412C23.482 8.60521 22.261 5.6566 20.0432 3.43883C17.8254 1.22106 14.8771 0 11.7409 0C8.60489 0 5.6566 1.22138 3.43883 3.43883C1.22138 5.6566 0 8.60489 0 11.7412C0 14.8774 1.22138 17.8257 3.43883 20.0435C5.6566 22.2613 8.60521 23.4827 11.7412 23.4827ZM23.8264 22.6111C23.8621 22.6111 23.9314 22.6197 23.9904 22.6787L28.6554 27.344C28.7145 27.4031 28.7231 27.4717 28.7231 27.5074C28.7231 27.5432 28.7145 27.6121 28.6551 27.6712L27.6705 28.6557C27.6115 28.7145 27.5426 28.7234 27.5068 28.7234C27.4711 28.7234 27.4021 28.7148 27.3431 28.6557L22.6784 23.9911C22.5881 23.9007 22.5881 23.7536 22.6784 23.6633L23.1699 23.1718C23.1702 23.1715 23.1705 23.1715 23.1708 23.1712C23.1712 23.1708 23.1712 23.1705 23.1715 23.1705L23.663 22.679C23.7217 22.6197 23.7906 22.6111 23.8264 22.6111ZM4.3417 4.3417C6.31819 2.36521 8.94574 1.2766 11.7409 1.2766C14.5363 1.2766 17.1638 2.36521 19.141 4.3417C21.1174 6.31819 22.2061 8.94638 22.2061 11.7415C22.2061 14.5366 21.1178 17.1645 19.141 19.141C17.1645 21.1174 14.5363 22.2061 11.7409 22.2061C8.94574 22.2061 6.31787 21.1174 4.34106 19.141C2.36489 17.1645 1.2766 14.5366 1.2766 11.7412C1.2766 8.94606 2.36489 6.31819 4.3417 4.3417Z" fill="black"/>
</svg>
