<svg width="30" height="30" viewBox="0 0 30 30" fill="none" xmlns="http://www.w3.org/2000/svg">
<path d="M29.842 27.1333L23.0949 20.3862C23.0485 20.3394 22.9932 20.3022 22.9323 20.2768C22.8714 20.2515 22.8061 20.2384 22.7401 20.2384C22.6741 20.2384 22.6088 20.2515 22.5479 20.2768C22.487 20.3022 22.4317 20.3394 22.3852 20.3862L21.7405 21.036L20.8309 20.1263L21.4906 19.4916C21.5375 19.4452 21.5747 19.3899 21.6 19.329C21.6254 19.2681 21.6385 19.2028 21.6385 19.1368C21.6385 19.0708 21.6254 19.0055 21.6 18.9446C21.5747 18.8837 21.5375 18.8284 21.4906 18.7819L19.9913 17.2826C21.2917 15.4439 21.9902 13.2473 21.9904 10.9953C21.9904 8.82062 21.3456 6.69479 20.1374 4.88663C18.9292 3.07847 17.212 1.66918 15.2029 0.83697C13.1938 0.00476412 10.983 -0.212979 8.85015 0.211276C6.71729 0.635531 4.75813 1.68273 3.22043 3.22045C1.68272 4.75816 0.635527 6.71733 0.211275 8.8502C-0.212978 10.9831 0.00476409 13.1939 0.836965 15.203C1.66917 17.2121 3.07845 18.9293 4.8866 20.1375C6.69475 21.3457 8.82056 21.9905 10.9952 21.9905C13.2507 21.9924 15.451 21.2938 17.2925 19.9914L18.7918 21.4908C18.8852 21.5823 19.0108 21.6336 19.1417 21.6336C19.2725 21.6336 19.3981 21.5823 19.4915 21.4908L20.1362 20.841L21.0458 21.7506L20.3961 22.3954C20.3493 22.4418 20.3121 22.4971 20.2867 22.558C20.2613 22.6189 20.2483 22.6842 20.2483 22.7502C20.2483 22.8162 20.2613 22.8815 20.2867 22.9424C20.3121 23.0033 20.3493 23.0586 20.3961 23.1051L27.1432 29.8522C27.1896 29.899 27.2449 29.9362 27.3058 29.9616C27.3667 29.9869 27.432 30 27.498 30C27.564 30 27.6293 29.9869 27.6902 29.9616C27.7511 29.9362 27.8064 29.899 27.8529 29.8522L29.852 27.853C29.8997 27.8057 29.9374 27.7493 29.9628 27.6871C29.9883 27.6249 30.0009 27.5582 30 27.4911C29.999 27.4239 29.9845 27.3576 29.9574 27.2961C29.9303 27.2346 29.891 27.1793 29.842 27.1333V27.1333ZM19.1267 20.4212L17.7073 18.9918C17.6882 18.9813 17.6699 18.9696 17.6523 18.9569L17.5673 18.9019L17.4924 18.8769H17.3924H17.2925H17.1975L17.1075 18.9219L17.0526 18.9469C15.0359 20.482 12.5113 21.1937 9.98972 20.938C7.46815 20.6823 5.13787 19.4782 3.47043 17.5694C1.80299 15.6607 0.922909 13.1897 1.00828 10.6566C1.09365 8.12354 2.13809 5.71747 3.93026 3.92529C5.72243 2.13311 8.12849 1.08866 10.6616 1.00329C13.1946 0.917916 15.6656 1.798 17.5743 3.46545C19.4831 5.1329 20.6872 7.46319 20.9429 9.98479C21.1986 12.5064 20.4869 15.031 18.9517 17.0477C18.9425 17.0656 18.9341 17.0839 18.9267 17.1026C18.9078 17.1305 18.8927 17.1608 18.8818 17.1926C18.8794 17.2242 18.8794 17.256 18.8818 17.2876C18.8818 17.3176 18.8818 17.3475 18.8818 17.3825C18.8794 17.4125 18.8794 17.4425 18.8818 17.4725C18.8895 17.5032 18.8995 17.5333 18.9118 17.5625C18.9283 17.5919 18.9467 17.6203 18.9667 17.6474C18.9795 17.665 18.9912 17.6834 19.0017 17.7024L20.4261 19.1218L19.1267 20.4212ZM27.488 28.7826L21.4456 22.7402L22.7401 21.4458L28.7824 27.4882L27.488 28.7826Z" fill="black"/>
<path d="M10.9952 2.49893C9.31479 2.49893 7.67212 2.99723 6.27491 3.93082C4.8777 4.86441 3.78871 6.19136 3.14565 7.74387C2.50258 9.29637 2.33433 11.0047 2.66216 12.6528C2.98999 14.301 3.79918 15.8149 4.98741 17.0031C6.17564 18.1913 7.68953 19.0005 9.33765 19.3284C10.9858 19.6562 12.6941 19.4879 14.2466 18.8449C15.7991 18.2018 17.126 17.1128 18.0596 15.7156C18.9932 14.3184 19.4915 12.6757 19.4915 10.9953C19.4915 8.74191 18.5964 6.58083 17.003 4.98745C15.4096 3.39408 13.2486 2.49893 10.9952 2.49893V2.49893ZM10.9952 18.492C9.51249 18.492 8.06307 18.0524 6.83024 17.2286C5.59741 16.4049 4.63653 15.234 4.06912 13.8642C3.50171 12.4943 3.35325 10.987 3.64252 9.53273C3.93178 8.0785 4.64577 6.7427 5.69421 5.69426C6.74265 4.64581 8.07844 3.93181 9.53266 3.64255C10.9869 3.35329 12.4942 3.50175 13.8641 4.06916C15.2339 4.63657 16.4048 5.59745 17.2285 6.83029C18.0523 8.06313 18.4919 9.51255 18.4919 10.9953C18.4919 12.9835 17.7021 14.8904 16.2962 16.2963C14.8903 17.7022 12.9835 18.492 10.9952 18.492Z" fill="black"/>
</svg>
