<svg width="40" height="40" viewBox="0 0 40 40" fill="none" xmlns="http://www.w3.org/2000/svg">
<path d="M32.3834 21.6333C32.45 21.1 32.5 20.5667 32.5 20C32.5 19.4333 32.45 18.9 32.3834 18.3667L35.9 15.6167C36.2167 15.3667 36.3 14.9167 36.1 14.55L32.7667 8.78334C32.6167 8.51668 32.3334 8.36668 32.0334 8.36668C31.9334 8.36668 31.8334 8.38334 31.75 8.41668L27.6 10.0833C26.7334 9.41668 25.8 8.86668 24.7834 8.45001L24.15 4.03334C24.1 3.63334 23.75 3.33334 23.3334 3.33334H16.6667C16.25 3.33334 15.9 3.63334 15.85 4.03334L15.2167 8.45001C14.2 8.86668 13.2667 9.43334 12.4 10.0833L8.25004 8.41668C8.15004 8.38334 8.05004 8.36668 7.95004 8.36668C7.6667 8.36668 7.38337 8.51668 7.23337 8.78334L3.90004 14.55C3.68337 14.9167 3.78337 15.3667 4.10004 15.6167L7.6167 18.3667C7.55004 18.9 7.50004 19.45 7.50004 20C7.50004 20.55 7.55004 21.1 7.6167 21.6333L4.10004 24.3833C3.78337 24.6333 3.70004 25.0833 3.90004 25.45L7.23337 31.2167C7.38337 31.4833 7.6667 31.6333 7.9667 31.6333C8.0667 31.6333 8.1667 31.6167 8.25004 31.5833L12.4 29.9167C13.2667 30.5833 14.2 31.1333 15.2167 31.55L15.85 35.9667C15.9 36.3667 16.25 36.6667 16.6667 36.6667H23.3334C23.75 36.6667 24.1 36.3667 24.15 35.9667L24.7834 31.55C25.8 31.1333 26.7334 30.5667 27.6 29.9167L31.75 31.5833C31.85 31.6167 31.95 31.6333 32.05 31.6333C32.3334 31.6333 32.6167 31.4833 32.7667 31.2167L36.1 25.45C36.3 25.0833 36.2167 24.6333 35.9 24.3833L32.3834 21.6333V21.6333ZM29.0834 18.7833C29.15 19.3 29.1667 19.65 29.1667 20C29.1667 20.35 29.1334 20.7167 29.0834 21.2167L28.85 23.1L30.3334 24.2667L32.1334 25.6667L30.9667 27.6833L28.85 26.8333L27.1167 26.1333L25.6167 27.2667C24.9 27.8 24.2167 28.2 23.5334 28.4833L21.7667 29.2L21.5 31.0833L21.1667 33.3333H18.8334L18.5167 31.0833L18.25 29.2L16.4834 28.4833C15.7667 28.1833 15.1 27.8 14.4334 27.3L12.9167 26.1333L11.15 26.85L9.03337 27.7L7.8667 25.6833L9.6667 24.2833L11.15 23.1167L10.9167 21.2333C10.8667 20.7167 10.8334 20.3333 10.8334 20C10.8334 19.6667 10.8667 19.2833 10.9167 18.7833L11.15 16.9L9.6667 15.7333L7.8667 14.3333L9.03337 12.3167L11.15 13.1667L12.8834 13.8667L14.3834 12.7333C15.1 12.2 15.7834 11.8 16.4667 11.5167L18.2334 10.8L18.5 8.91668L18.8334 6.66668H21.15L21.4667 8.91668L21.7334 10.8L23.5 11.5167C24.2167 11.8167 24.8834 12.2 25.55 12.7L27.0667 13.8667L28.8334 13.15L30.95 12.3L32.1167 14.3167L30.3334 15.7333L28.85 16.9L29.0834 18.7833ZM20 13.3333C16.3167 13.3333 13.3334 16.3167 13.3334 20C13.3334 23.6833 16.3167 26.6667 20 26.6667C23.6834 26.6667 26.6667 23.6833 26.6667 20C26.6667 16.3167 23.6834 13.3333 20 13.3333ZM20 23.3333C18.1667 23.3333 16.6667 21.8333 16.6667 20C16.6667 18.1667 18.1667 16.6667 20 16.6667C21.8334 16.6667 23.3334 18.1667 23.3334 20C23.3334 21.8333 21.8334 23.3333 20 23.3333Z" fill="#F8F8F8"/>
</svg>
