<svg xmlns="http://www.w3.org/2000/svg" viewBox="0 0 261.75 169.33"><defs><style>.cls-1,.cls-14,.cls-17,.cls-19,.cls-4,.cls-5,.cls-6{fill:none;}.cls-1,.cls-5{stroke:#d1d7db;}.cls-1,.cls-14,.cls-4,.cls-5,.cls-6{stroke-miterlimit:10;}.cls-1{stroke-width:0.7px;}.cls-2{fill:#d1d7db;}.cls-3{fill:#fffffd;}.cls-4{stroke:#fe5d5d;}.cls-4,.cls-5{stroke-width:0.76px;}.cls-6{stroke:#213033;stroke-width:1.04px;}.cls-7{fill:#fe5d5d;}.cls-8{fill:#ffc9bd;}.cls-9{fill:#090b0c;}.cls-10{fill:#fff;}.cls-11{fill:#2d3f96;}.cls-12{fill:#4151b3;}.cls-13{fill:#c1ccff;}.cls-14{stroke:#98abed;stroke-width:0.75px;}.cls-15{fill:#efb2a8;}.cls-16{fill:#dd9790;}.cls-17{stroke:#201d2f;stroke-width:0.57px;}.cls-17,.cls-19{stroke-linecap:round;stroke-linejoin:round;}.cls-18{fill:#201d2f;}.cls-19{stroke:#fff;stroke-width:0.76px;}.cls-20{fill:#111d36;}.cls-21{fill:#24385b;}.cls-22{fill:#3d5056;}.cls-23{fill:#273237;}</style></defs><g id="Layer_2" data-name="Layer 2"><g id="OBJECTS"><rect class="cls-1" x="0.35" y="21.54" width="66.96" height="6.14"/><rect class="cls-1" x="13.07" y="11.07" width="11.11" height="10.46"/><rect class="cls-1" x="29.41" y="1.6" width="6.32" height="19.94"/><rect class="cls-1" x="35.73" y="1.6" width="6.32" height="19.94"/><rect class="cls-1" x="46.25" y="0.86" width="6.32" height="19.94" transform="translate(0.07 22) rotate(-25.12)"/><polygon class="cls-2" points="257.88 11.25 251.74 5.38 231.22 26.31 237.85 32.57 257.88 11.25"/><circle class="cls-2" cx="247.08" cy="21.17" r="14.67" transform="translate(161.5 253.92) rotate(-74.71)"/><circle class="cls-3" cx="241.97" cy="16.32" r="14.67" transform="translate(12.47 94.7) rotate(-22.71)"/><line class="cls-4" x1="251.38" y1="10.37" x2="242.09" y2="16.32"/><path class="cls-2" d="M243.88,16.32a2.08,2.08,0,1,1-2.08-2.08A2.08,2.08,0,0,1,243.88,16.32Z"/><line class="cls-5" x1="236.68" y1="11.83" x2="241.41" y2="16.32"/><line class="cls-6" x1="96.85" y1="116.97" x2="129.62" y2="168.71"/><line class="cls-6" x1="125.4" y1="116.97" x2="95.36" y2="168.81"/><path class="cls-3" d="M134,121.18s-5.22,4.8-25.93,2.72S74.32,111.08,73.26,87.05a67.75,67.75,0,0,1,11.9-40.93l49.9,52.34Z"/><path class="cls-7" d="M96.69,32s-9.24-4.09-11,4.28c0,0-6.86-1.15-10.37,6.68-4.82,10.75,7.6,15.85,7.6,15.85l35.33-1.5s9.87-12.76-1.79-17.68c0,0,.19-7.91-7.65-6.27Z"/><polygon class="cls-8" points="172.79 161.18 164.01 161.14 159.75 147.18 167.94 145.28 172.79 161.18"/><path class="cls-9" d="M163.7,159.33c2.06.55,6.74,2.35,8.93-.83l14.83,8-26.17-.17,1.22-6.25A1,1,0,0,1,163.7,159.33Z"/><rect class="cls-10" x="161.28" y="166.45" width="26.17" height="2.27" transform="translate(1.11 -1.14) rotate(0.38)"/><path class="cls-11" d="M134,94l16.6,5.62a14.47,14.47,0,0,1,9.15,9.3l14.93,43.5L159,154.26l-17.24-42.54Z"/><polygon class="cls-8" points="128.62 161.16 119.84 161.12 124.39 147.19 133.17 147.23 128.62 161.16"/><path class="cls-9" d="M120.29,159.33c2.07.55,6.74,2.35,8.94-.83l14.82,8-26.17-.17,1.22-6.25A1,1,0,0,1,120.29,159.33Z"/><rect class="cls-10" x="117.87" y="166.45" width="26.17" height="2.27" transform="translate(1.1 -0.86) rotate(0.38)"/><path class="cls-12" d="M93.08,92S86.75,107.44,99,112.48c0,0,9.32,3,32.32,1.7l-12,38,14.65,1.61,15.19-40.9a10.66,10.66,0,0,0-4.74-13L130.55,92Z"/><path class="cls-13" d="M113.47,48.34s4,0,5.78,6,6.59,20.48,6.59,20.48L114,84l-1.82-17.82Z"/><path class="cls-8" d="M149.14,83.22h10.21a8,8,0,0,1,5.1,1.82l3.25,2.67L166,88.88H148Z"/><polygon class="cls-13" points="125.84 74.87 150.64 80.37 149.9 87.44 116.91 87.44 116.17 76.07 125.84 74.87"/><path class="cls-13" d="M98.71,45.12,87.23,49.19l5.14,39.69h23.32l1.1-18.52s1.46-1.75,1.76-6.44a20,20,0,0,0-3.22-12.5l-1.86-3.08-8.88-2.68Z"/><path class="cls-14" d="M115.7,56.66a16.93,16.93,0,0,1,1.09,15.7l-.38,7.41"/><path class="cls-13" d="M87.23,49.19s-5.24.42-4.7,9.6c.35,6.12,1.27,17.49,1.85,24.36a6.24,6.24,0,0,0,6.22,5.73h8.68l-4-32.22Z"/><path class="cls-8" d="M119.7,83.22h10.2A8,8,0,0,1,135,85l3.25,2.67-1.7,1.17h-18Z"/><polygon class="cls-13" points="94 76.07 121.08 80.59 120.15 88.88 94.01 88.88 94 76.07"/><polyline class="cls-14" points="95.47 58.78 96.85 76.55 121.08 80.59 120.76 83.46"/><line class="cls-14" x1="97.76" y1="76.7" x2="92.18" y2="76.07"/><path class="cls-15" d="M108.61,30.17a3.56,3.56,0,1,0,4-3.1A3.56,3.56,0,0,0,108.61,30.17Z"/><path class="cls-7" d="M106.14,14a5.67,5.67,0,1,1-5.67-5.68A5.67,5.67,0,0,1,106.14,14Z"/><path class="cls-7" d="M114,23.84a10.79,10.79,0,0,1-10.79,10.79c-6,0-11.83-3.8-11.83-9.76s5.87-11.82,11.83-11.82A10.79,10.79,0,0,1,114,23.84Z"/><path class="cls-8" d="M106.79,40.23l-.87,7.7c-.31,2.71-2.14,4-4.79,3.64h0c-2.27-.27-4.27-1.7-4.28-4l2-12.05Z"/><path class="cls-16" d="M106.37,43.93c-5.4-.47-8.3-7.13-8.3-7.13l8.83,2.65Z"/><path class="cls-8" d="M104.33,41h0c4.57.24,8.51-3.16,8.84-6.88l.71-8.78A8.68,8.68,0,0,0,106.27,16h0c-4.75-.57-9.9,2.72-10.48,7.48l-.49,7.06A9.48,9.48,0,0,0,104.33,41Z"/><polyline class="cls-17" points="108.93 32.96 109.51 34.63 108.08 34.63"/><path class="cls-7" d="M104.07,26.28s2.28-.27,2.2.91c0,0-.07.79-2.06,1s-2.49,0-2.6-.74S103,26.3,104.07,26.28Z"/><path class="cls-7" d="M111.87,26.64s-1.62-.31-1.78.76c0,0-.1.72,1.32,1s1.9,0,2-.59S112.64,26.69,111.87,26.64Z"/><path class="cls-18" d="M105.4,30.6a.81.81,0,1,1-.81-.81A.81.81,0,0,1,105.4,30.6Z"/><circle class="cls-18" cx="111.4" cy="30.91" r="0.73"/><path class="cls-3" d="M104.59,35.83h4.65s.17,1.64-2.32,1.62S104.59,35.83,104.59,35.83Z"/><path class="cls-7" d="M96.85,28.44a12.57,12.57,0,0,0,8.46-8.67l-.81-4.33s-11.7-1.11-9.41,11.12Z"/><path class="cls-7" d="M101.82,20.24s3.58,4.79,15,5.7c0,0,.59-11.63-12.36-10.5Z"/><path class="cls-19" d="M95.47,16.27a13.94,13.94,0,0,1,5.41-2.86,10.28,10.28,0,0,1,5.08,0"/><polygon class="cls-7" points="98.95 26.94 96.22 31.24 95.47 24.6 98.95 26.94"/><path class="cls-8" d="M90.47,29.36a3.55,3.55,0,1,0,4-3.1A3.54,3.54,0,0,0,90.47,29.36Z"/><path class="cls-17" d="M95.1,31s.31-2.56-2.19-2.45"/><path class="cls-8" d="M91.34,47.74s3.14,3.88,10.27,5.43a9.7,9.7,0,0,0,10.53-5.24s-6.43-2.81-8.2-2.81l-6.77.55Z"/><polyline class="cls-6" points="170.61 168.87 195.19 92.02 220.39 167.94"/><polyline class="cls-6" points="57.68 168.87 82.27 92.02 107.47 167.94"/><rect class="cls-20" x="49.4" y="88.92" width="69.94" height="6.19"/><rect class="cls-21" x="117.78" y="88.92" width="118.59" height="6.19"/><path class="cls-9" d="M140.74,86.48h30.52a1.23,1.23,0,0,1,1.23,1.23h0a1.23,1.23,0,0,1-1.23,1.23H140.74a1.23,1.23,0,0,1-1.23-1.23h0A1.23,1.23,0,0,1,140.74,86.48Z"/><path class="cls-22" d="M125.06,86.48h22a1.24,1.24,0,0,1,1.23,1.23h0A1.24,1.24,0,0,1,147,88.94h-22a1.23,1.23,0,0,1-1.23-1.23h0A1.23,1.23,0,0,1,125.06,86.48Z"/><rect class="cls-23" x="141.94" y="30.32" width="70.15" height="46.9" rx="2.87" transform="translate(354.04 107.54) rotate(180)"/><rect class="cls-23" x="143.48" y="30.32" width="70.15" height="46.9" rx="2.87" transform="translate(357.11 107.54) rotate(180)"/><polygon class="cls-9" points="174.04 52.13 157.23 77.22 181.41 77.22 174.04 52.13"/><path class="cls-22" d="M186.09,51.49H175.28a1.53,1.53,0,0,0-1.51,1.83l7,34.39a1.52,1.52,0,0,0,1.5,1.23h11.35a1.53,1.53,0,0,0,1.5-1.86l-7.52-34.39A1.53,1.53,0,0,0,186.09,51.49Z"/><path class="cls-22" d="M170.3,86.48h19.95v2.46H170.3a1.23,1.23,0,0,1-1.23-1.23h0A1.23,1.23,0,0,1,170.3,86.48Z"/><line class="cls-6" x1="261.3" y1="168.81" x2="9.8" y2="168.81"/></g></g></svg>