<svg width="48" height="14" viewBox="0 0 48 14" fill="none" xmlns="http://www.w3.org/2000/svg">
<path d="M7 13.418C10.544 13.418 13.417 10.545 13.417 7.001C13.417 3.45699 10.544 0.584 7 0.584C3.45599 0.584 0.583 3.45699 0.583 7.001C0.583 10.545 3.45599 13.418 7 13.418Z" fill="#B9B4B2"/>
<path d="M24 13.418C27.544 13.418 30.417 10.545 30.417 7.001C30.417 3.45699 27.544 0.584 24 0.584C20.456 0.584 17.583 3.45699 17.583 7.001C17.583 10.545 20.456 13.418 24 13.418Z" fill="#B9B4B2"/>
<path d="M7 13.418C10.544 13.418 13.417 10.545 13.417 7.001C13.417 3.45699 10.544 0.584 7 0.584C3.45599 0.584 0.583 3.45699 0.583 7.001C0.583 10.545 3.45599 13.418 7 13.418Z" fill="#B9B4B2"/>
<path d="M24 13.418C27.544 13.418 30.417 10.545 30.417 7.001C30.417 3.45699 27.544 0.584 24 0.584C20.456 0.584 17.583 3.45699 17.583 7.001C17.583 10.545 20.456 13.418 24 13.418Z" fill="#B9B4B2"/>
<path d="M41 13.417C44.5435 13.417 47.416 10.5445 47.416 7.001C47.416 3.45754 44.5435 0.584999 41 0.584999C37.4565 0.584999 34.584 3.45754 34.584 7.001C34.584 10.5445 37.4565 13.417 41 13.417Z" fill="#B9B4B2"/>
</svg>
