<svg width="200" height="240" viewBox="0 0 200 240" fill="none" xmlns="http://www.w3.org/2000/svg">
<path d="M51.4307 30.5297H0.267426V39.2323H51.4307V30.5297Z" stroke="#D1D7DB" stroke-width="0.7" stroke-miterlimit="10"/>
<path d="M18.4756 15.6901H9.98663V30.5156H18.4756V15.6901Z" stroke="#D1D7DB" stroke-width="0.7" stroke-miterlimit="10"/>
<path d="M27.3008 2.26776H22.4718V30.5297H27.3008V2.26776Z" stroke="#D1D7DB" stroke-width="0.7" stroke-miterlimit="10"/>
<path d="M32.1299 2.26776H27.3008V30.5297H32.1299V2.26776Z" stroke="#D1D7DB" stroke-width="0.7" stroke-miterlimit="10"/>
<path d="M36.7015 0.654642L32.3292 4.45731L38.797 30.0463L43.1693 26.2436L36.7015 0.654642Z" stroke="#D1D7DB" stroke-width="0.7" stroke-miterlimit="10"/>
<path d="M197.043 15.9452L192.351 7.62534L176.672 37.2905L181.738 46.1631L197.043 15.9452Z" fill="#D1D7DB"/>
<path d="M199.601 35.4861C201.233 24.4092 197.716 12.9747 191.744 9.94646C185.773 6.91824 179.608 13.443 177.976 24.5199C176.343 35.5969 179.861 47.0313 185.832 50.0596C191.804 53.0878 197.968 46.563 199.601 35.4861Z" fill="#D1D7DB"/>
<path d="M189.222 42.3373C194.933 37.9039 197.625 25.7225 195.235 15.1294C192.845 4.53634 186.278 -0.457104 180.567 3.97626C174.856 8.40962 172.164 20.591 174.554 31.1841C176.944 41.7772 183.511 46.7706 189.222 42.3373Z" fill="#FFFFFD"/>
<path d="M192.076 14.6979L184.978 23.1311" stroke="#FE5D5D" stroke-width="0.76" stroke-miterlimit="10"/>
<path d="M186.346 23.1311C186.346 23.7142 186.253 24.2842 186.078 24.769C185.903 25.2538 185.655 25.6317 185.365 25.8548C185.074 26.0779 184.755 26.1363 184.446 26.0226C184.138 25.9088 183.855 25.628 183.633 25.2158C183.41 24.8035 183.259 24.2782 183.198 23.7063C183.136 23.1344 183.168 22.5416 183.288 22.0029C183.408 21.4643 183.612 21.0038 183.873 20.6799C184.135 20.3559 184.442 20.183 184.756 20.183C185.178 20.183 185.582 20.4936 185.88 21.0465C186.178 21.5994 186.346 22.3493 186.346 23.1311V23.1311Z" fill="#D1D7DB"/>
<path d="M180.844 16.7672L184.458 23.1312" stroke="#D1D7DB" stroke-width="0.76" stroke-miterlimit="10"/>
<path d="M74.0019 165.787L99.041 239.121" stroke="#213033" stroke-width="1.04" stroke-miterlimit="10"/>
<path d="M95.8166 165.787L72.8634 239.263" stroke="#213033" stroke-width="1.04" stroke-miterlimit="10"/>
<path d="M102.388 171.755C102.388 171.755 98.3992 178.558 82.575 175.61C66.7507 172.662 56.787 157.439 55.9771 123.38C55.5643 102.732 58.753 82.3873 65.0697 65.3682L103.198 139.552L102.388 171.755Z" fill="#FFFFFD"/>
<path d="M73.8796 45.3552C73.8796 45.3552 66.8195 39.5582 65.4747 51.4214C65.4747 51.4214 60.233 49.7915 57.5511 60.8893C53.8682 76.1259 63.3582 83.3544 63.3582 83.3544L90.3534 81.2283C90.3534 81.2283 97.8949 63.1429 88.9857 56.1696C88.9857 56.1696 89.1308 44.9583 83.1404 47.2828L73.8796 45.3552Z" fill="#FE5D5D"/>
<path d="M132.027 228.449L125.318 228.392L122.063 208.606L128.321 205.913L132.027 228.449Z" fill="#FFC9BD"/>
<path d="M125.081 225.826C126.655 226.606 130.231 229.157 131.905 224.65L143.236 235.989L123.24 235.748L124.172 226.89C124.217 226.526 124.339 226.21 124.509 226.011C124.679 225.812 124.885 225.746 125.081 225.826Z" fill="#090B0C"/>
<path d="M143.23 236.059L123.234 235.813L123.223 239.03L143.218 239.276L143.23 236.059Z" fill="white"/>
<path d="M102.388 133.231L115.072 141.196C116.712 142.225 118.199 143.953 119.414 146.243C120.628 148.532 121.535 151.319 122.063 154.378L133.471 216.033L121.49 218.64L108.317 158.346L102.388 133.231Z" fill="#2D3F96"/>
<path d="M98.277 228.42L91.5683 228.364L95.0449 208.62L101.754 208.677L98.277 228.42Z" fill="#FFC9BD"/>
<path d="M91.9121 225.826C93.4938 226.606 97.0621 229.157 98.7431 224.65L110.067 235.989L90.0707 235.748L91.0029 226.89C91.0484 226.526 91.1695 226.21 91.3397 226.011C91.5099 225.812 91.7156 225.746 91.9121 225.826Z" fill="#090B0C"/>
<path d="M110.054 236.048L90.058 235.802L90.0465 239.019L110.042 239.265L110.054 236.048Z" fill="white"/>
<path d="M71.1213 130.396C71.1213 130.396 66.2846 152.28 75.6447 159.424C75.6447 159.424 82.766 163.676 100.34 161.833L91.171 215.692L102.365 217.974L113.971 160.005C114.648 156.636 114.655 152.931 113.991 149.554C113.327 146.177 112.036 143.349 110.35 141.579L99.7517 130.396H71.1213Z" fill="#4151B3"/>
<path d="M86.7011 68.5147C86.7011 68.5147 89.7574 68.5147 91.1175 77.0188C92.4776 85.5229 96.1528 106.046 96.1528 106.046L87.106 119.057L85.7154 93.8002L86.7011 68.5147Z" fill="#C1CCFF"/>
<path d="M113.956 117.952H121.757C123.179 117.945 124.556 118.858 125.654 120.532L128.138 124.316L126.839 125.974H113.085L113.956 117.952Z" fill="#FFC9BD"/>
<path d="M96.1528 106.117L115.102 113.912L114.537 123.933H89.3295L88.7641 107.818L96.1528 106.117Z" fill="#C1CCFF"/>
<path d="M75.4231 63.9509L66.6514 69.7195L70.5788 125.974H88.3973L89.2378 99.7248C89.2378 99.7248 90.3534 97.2444 90.5826 90.5971C90.8406 84.3493 89.9754 78.1191 88.1222 72.8802L86.701 68.5147L79.9159 64.7162L75.4231 63.9509Z" fill="#C1CCFF"/>
<path d="M88.405 80.3071C89.5046 83.614 90.155 87.3668 90.3 91.2429C90.4451 95.119 90.0806 99.0024 89.2378 102.56L88.9475 113.062" stroke="#98ABED" stroke-width="0.75" stroke-miterlimit="10"/>
<path d="M66.6514 69.7195C66.6514 69.7195 62.6476 70.3148 63.0602 83.3261C63.3276 92.0002 64.0306 108.116 64.4737 117.853C64.5716 120.066 65.1147 122.13 65.9952 123.635C66.8757 125.139 68.0292 125.974 69.2264 125.974H75.8586L72.8023 80.3071L66.6514 69.7195Z" fill="#C1CCFF"/>
<path d="M91.4613 117.952H99.255C100.672 117.929 102.05 118.821 103.152 120.475L105.635 124.259L104.336 125.917H90.5826L91.4613 117.952Z" fill="#FFC9BD"/>
<path d="M71.8242 107.818L92.5158 114.224L91.8052 125.974H71.8319L71.8242 107.818Z" fill="#C1CCFF"/>
<path d="M72.9475 83.3119L74.0019 108.498L92.5158 114.224L92.2713 118.292" stroke="#98ABED" stroke-width="0.75" stroke-miterlimit="10"/>
<path d="M74.6972 108.711L70.4336 107.818" stroke="#98ABED" stroke-width="0.75" stroke-miterlimit="10"/>
<path d="M82.9876 42.7614C82.9228 43.7499 83.0172 44.7518 83.2588 45.641C83.5004 46.5302 83.8784 47.2669 84.3453 47.7583C84.8121 48.2498 85.3469 48.4741 85.8823 48.4029C86.4178 48.3317 86.9299 47.9682 87.3542 47.3583C87.7785 46.7483 88.096 45.9191 88.2667 44.9751C88.4375 44.0311 88.4539 43.0145 88.3138 42.0533C88.1737 41.092 87.8834 40.2292 87.4795 39.5733C87.0756 38.9175 86.5761 38.498 86.0439 38.3677C85.6874 38.2804 85.3251 38.325 84.978 38.4991C84.6309 38.6732 84.3058 38.9732 84.0216 39.3818C83.7374 39.7904 83.4996 40.2994 83.3221 40.8796C83.1447 41.4597 83.0309 42.0993 82.9876 42.7614V42.7614Z" fill="#EFB2A8"/>
<path d="M81.1003 19.8429C81.0988 21.4318 80.8434 22.9841 80.3664 24.3038C79.8895 25.6235 79.2123 26.6514 78.4206 27.2574C77.6288 27.8635 76.7579 28.0207 75.918 27.709C75.0781 27.3973 74.3069 26.6308 73.7018 25.5063C73.0966 24.3818 72.6848 22.9499 72.5182 21.3914C72.3517 19.8328 72.4379 18.2177 72.7661 16.7501C73.0942 15.2825 73.6495 14.0282 74.3618 13.1458C75.0741 12.2633 75.9114 11.7924 76.7679 11.7924C77.3375 11.7924 77.9015 12.0007 78.4276 12.4054C78.9537 12.8102 79.4317 13.4034 79.8341 14.1512C80.2365 14.8989 80.5554 15.7865 80.7727 16.7632C80.99 17.7398 81.1013 18.7864 81.1003 19.8429V19.8429Z" fill="#FE5D5D"/>
<path d="M87.106 33.7896C87.106 37.8456 86.2374 41.7355 84.6912 44.6035C83.1451 47.4716 81.0481 49.0828 78.8615 49.0828C74.277 49.0828 69.8223 43.6969 69.8223 35.2495C69.8223 26.8021 74.3075 18.4964 78.8615 18.4964C81.0481 18.4964 83.1451 20.1076 84.6912 22.9757C86.2374 25.8437 87.106 29.7336 87.106 33.7896V33.7896Z" fill="#FE5D5D"/>
<path d="M81.5969 57.02L80.9322 67.9336C80.6953 71.7746 79.297 73.603 77.2722 73.0927C75.5377 72.7101 74.0095 70.6832 74.0019 67.4233L75.5301 50.3443L81.5969 57.02Z" fill="#FFC9BD"/>
<path d="M81.276 62.2642C77.1499 61.598 74.9341 52.1585 74.9341 52.1585L81.681 55.9145L81.276 62.2642Z" fill="#DD9790"/>
<path d="M79.7173 58.1114C83.2092 58.4515 86.2197 53.6325 86.4718 48.36L87.0143 35.9156C87.1572 32.7421 86.6312 29.5894 85.5467 27.1206C84.4623 24.6517 82.9041 23.0591 81.1996 22.6776C77.5702 21.8697 73.6352 26.5328 73.192 33.2794L72.8176 43.2859C72.7144 45.111 72.8139 46.9559 73.1099 48.7069C73.4059 50.458 73.8922 52.078 74.5386 53.4671C75.1851 54.8561 75.9781 55.9849 76.8688 56.7836C77.7594 57.5824 78.7289 58.0342 79.7173 58.1114V58.1114Z" fill="#FFC9BD"/>
<path d="M83.2321 46.7159L83.6753 49.0828H82.5826" stroke="#201D2F" stroke-width="0.57" stroke-linecap="round" stroke-linejoin="round"/>
<path d="M79.5186 37.248C79.5186 37.248 81.2607 36.8653 81.1996 38.5377C81.1996 38.5377 81.1461 39.6575 79.6256 39.9551C78.105 40.2527 77.723 39.9551 77.639 38.9063C77.5549 37.8574 78.701 37.2763 79.5186 37.248Z" fill="#FE5D5D"/>
<path d="M85.4785 37.7582C85.4785 37.7582 84.2407 37.3188 84.1184 38.8354C84.1184 38.8354 84.042 39.8559 85.127 40.2527C86.212 40.6496 86.5788 40.2527 86.6552 39.4165C86.7316 38.5803 86.0668 37.8291 85.4785 37.7582Z" fill="#FE5D5D"/>
<path d="M80.5349 43.3709C80.5349 43.598 80.4986 43.8199 80.4305 44.0087C80.3625 44.1975 80.2659 44.3447 80.1528 44.4316C80.0397 44.5185 79.9153 44.5412 79.7952 44.4969C79.6751 44.4526 79.5649 44.3433 79.4783 44.1827C79.3917 44.0221 79.3328 43.8176 79.3089 43.5949C79.285 43.3722 79.2973 43.1413 79.3441 42.9316C79.391 42.7218 79.4703 42.5425 79.5721 42.4163C79.6739 42.2902 79.7935 42.2228 79.9159 42.2228C80.0801 42.2228 80.2375 42.3438 80.3536 42.5591C80.4696 42.7744 80.5349 43.0664 80.5349 43.3709V43.3709Z" fill="#201D2F"/>
<path d="M85.1194 44.845C85.4274 44.845 85.6772 44.3817 85.6772 43.8103C85.6772 43.2389 85.4274 42.7756 85.1194 42.7756C84.8113 42.7756 84.5616 43.2389 84.5616 43.8103C84.5616 44.3817 84.8113 44.845 85.1194 44.845Z" fill="#201D2F"/>
<path d="M79.916 50.7837H83.469C83.469 50.7837 83.5989 53.1081 81.6963 53.0798C79.7937 53.0514 79.916 50.7837 79.916 50.7837Z" fill="#FFFFFD"/>
<path d="M74.0019 40.3094C75.5502 39.4371 76.9546 37.8532 78.0847 35.7049C79.2147 33.5566 80.0339 30.9135 80.4661 28.021L79.8472 21.8839C79.8472 21.8839 70.9074 20.3106 72.6571 37.6448L74.0019 40.3094Z" fill="#FE5D5D"/>
<path d="M77.7994 28.6872C77.7994 28.6872 80.5349 35.4763 89.2607 36.7661C89.2607 36.7661 89.7116 20.2823 79.8166 21.8839L77.7994 28.6872Z" fill="#FE5D5D"/>
<path d="M72.9475 23.0603C74.1465 21.1578 75.5584 19.7733 77.0812 19.0067C78.3547 18.4043 79.6893 18.4043 80.9628 19.0067" stroke="white" stroke-width="0.76" stroke-linecap="round" stroke-linejoin="round"/>
<path d="M75.6065 38.1834L73.5205 44.278L72.9475 34.8668L75.6065 38.1834Z" fill="#FE5D5D"/>
<path d="M69.127 41.6134C69.0641 42.5982 69.1594 43.5956 69.401 44.4802C69.6427 45.3649 70.0199 46.0973 70.4852 46.5856C70.9505 47.0738 71.4833 47.2961 72.0165 47.2245C72.5498 47.1529 73.0597 46.7906 73.4823 46.1831C73.9049 45.5756 74.2212 44.75 74.3917 43.81C74.5621 42.87 74.579 41.8576 74.4402 40.8999C74.3014 39.9422 74.0132 39.0819 73.6116 38.4271C73.2101 37.7723 72.7132 37.3522 72.1834 37.2196C71.8266 37.1284 71.4636 37.1702 71.1156 37.3427C70.7676 37.5152 70.4417 37.8149 70.1571 38.2242C69.8724 38.6335 69.6346 39.1441 69.4577 39.7261C69.2809 40.3081 69.1684 40.9497 69.127 41.6134V41.6134Z" fill="#FFC9BD"/>
<path d="M72.6647 43.9378C72.6647 43.9378 72.9016 40.3094 70.9914 40.4653" stroke="#201D2F" stroke-width="0.57" stroke-linecap="round" stroke-linejoin="round"/>
<path d="M69.7918 67.6643C69.7918 67.6643 72.191 73.1636 77.639 75.3605C79.2335 75.9282 80.8844 75.5089 82.338 74.1672C83.7915 72.8254 84.9674 70.6354 85.6848 67.9336C85.6848 67.9336 80.7717 63.9509 79.4193 63.9509L74.2464 64.7304L69.7918 67.6643Z" fill="#FFC9BD"/>
<path d="M130.361 239.348L149.142 130.425L168.397 238.03" stroke="#213033" stroke-width="1.04" stroke-miterlimit="10"/>
<path d="M44.0726 239.348L62.8615 130.425L82.1165 238.03" stroke="#213033" stroke-width="1.04" stroke-miterlimit="10"/>
<path d="M91.1862 126.031H37.7459V134.804H91.1862V126.031Z" fill="#111D36"/>
<path d="M180.607 126.031H89.9943V134.804H180.607V126.031Z" fill="#24385B"/>
<path d="M107.538 122.572H130.858C131.107 122.572 131.346 122.756 131.522 123.083C131.698 123.41 131.798 123.853 131.798 124.316C131.798 124.778 131.698 125.222 131.522 125.549C131.346 125.875 131.107 126.059 130.858 126.059H107.538C107.288 126.059 107.049 125.875 106.873 125.549C106.697 125.222 106.598 124.778 106.598 124.316C106.598 123.853 106.697 123.41 106.873 123.083C107.049 122.756 107.288 122.572 107.538 122.572V122.572Z" fill="#090B0C"/>
<path d="M95.5568 122.572H112.367C112.615 122.576 112.853 122.761 113.029 123.087C113.205 123.413 113.305 123.855 113.307 124.316V124.316C113.306 124.551 113.279 124.784 113.229 125.001C113.178 125.217 113.105 125.412 113.013 125.575C112.921 125.738 112.812 125.864 112.693 125.948C112.575 126.031 112.448 126.069 112.321 126.059H95.511C95.3876 126.059 95.2654 126.014 95.1513 125.926C95.0373 125.839 94.9337 125.71 94.8464 125.549C94.7592 125.387 94.6899 125.194 94.6427 124.983C94.5955 124.771 94.5712 124.545 94.5712 124.316V124.316C94.571 124.08 94.5968 123.846 94.6468 123.628C94.6969 123.411 94.7703 123.215 94.8624 123.052C94.9546 122.889 95.0637 122.762 95.1831 122.68C95.3025 122.598 95.4296 122.561 95.5568 122.572V122.572Z" fill="#3D5056"/>
<path d="M110.655 109.448L159.87 109.448C161.081 109.448 162.063 107.627 162.063 105.38V47.0419C162.063 44.7953 161.081 42.9741 159.87 42.9741L110.655 42.9741C109.444 42.9741 108.462 44.7953 108.462 47.0419V105.38C108.462 107.627 109.444 109.448 110.655 109.448Z" fill="#273237"/>
<path d="M111.824 109.448L161.039 109.448C162.25 109.448 163.232 107.627 163.232 105.38V47.0419C163.232 44.7953 162.25 42.9741 161.039 42.9741L111.824 42.9741C110.613 42.9741 109.631 44.7953 109.631 47.0419V105.38C109.631 107.627 110.613 109.448 111.824 109.448Z" fill="#273237"/>
<path d="M132.982 73.8865L120.138 109.448H138.613L132.982 73.8865Z" fill="#090B0C"/>
<path d="M142.189 72.9794H133.929C133.756 72.9773 133.584 73.047 133.427 73.1834C133.27 73.3197 133.131 73.5193 133.02 73.7677C132.91 74.0161 132.83 74.307 132.788 74.6192C132.746 74.9315 132.742 75.2574 132.776 75.5731L138.124 124.316C138.176 124.809 138.319 125.252 138.528 125.571C138.737 125.889 139 126.062 139.27 126.059H147.943C148.118 126.06 148.291 125.989 148.45 125.849C148.608 125.709 148.747 125.505 148.857 125.252C148.967 124.999 149.045 124.703 149.085 124.386C149.125 124.07 149.127 123.74 149.089 123.423L143.343 74.6802C143.285 74.1941 143.139 73.7598 142.929 73.4501C142.719 73.1404 142.457 72.9742 142.189 72.9794V72.9794Z" fill="#3D5056"/>
<path d="M130.124 122.572H145.368V126.059H130.124C130.001 126.059 129.879 126.014 129.764 125.926C129.65 125.839 129.547 125.71 129.46 125.549C129.372 125.387 129.303 125.194 129.256 124.983C129.209 124.771 129.184 124.545 129.184 124.316V124.316C129.184 123.853 129.283 123.41 129.46 123.083C129.636 122.756 129.875 122.572 130.124 122.572V122.572Z" fill="#3D5056"/>
<path d="M199.656 239.263H7.48807" stroke="#213033" stroke-width="1.04" stroke-miterlimit="10"/>
</svg>
