<svg width="151" height="197" viewBox="0 0 151 197" fill="none" xmlns="http://www.w3.org/2000/svg">
<path d="M38.2057 24.3638H0.267426V31.5147H38.2057V24.3638Z" stroke="#D1D7DB" stroke-width="0.7" stroke-miterlimit="10"/>
<path d="M13.769 12.1701H7.47433V24.3522H13.769V12.1701Z" stroke="#D1D7DB" stroke-width="0.7" stroke-miterlimit="10"/>
<path d="M20.313 1.14108H16.7322V24.3638H20.313V1.14108Z" stroke="#D1D7DB" stroke-width="0.7" stroke-miterlimit="10"/>
<path d="M23.8938 1.14108H20.313V24.3638H23.8938V1.14108Z" stroke="#D1D7DB" stroke-width="0.7" stroke-miterlimit="10"/>
<path d="M27.2837 -0.184417L24.0416 2.94022L28.8376 23.9666L32.0797 20.8419L27.2837 -0.184417Z" stroke="#D1D7DB" stroke-width="0.7" stroke-miterlimit="10"/>
<path d="M146.179 12.3798L142.7 5.5434L131.074 29.9191L134.83 37.2097L146.179 12.3798Z" fill="#D1D7DB"/>
<path d="M148.076 28.4365C149.286 19.3346 146.678 9.93892 142.25 7.45064C137.822 4.96236 133.251 10.3237 132.041 19.4256C130.83 28.5275 133.438 37.9231 137.866 40.4114C142.294 42.8997 146.865 37.5383 148.076 28.4365Z" fill="#D1D7DB"/>
<path d="M140.38 34.066C144.614 30.4232 146.61 20.4138 144.838 11.7095C143.066 3.00517 138.196 -1.09792 133.962 2.54495C129.727 6.18783 127.731 16.1972 129.503 24.9015C131.276 33.6058 136.145 37.7089 140.38 34.066Z" fill="#FFFFFD"/>
<path d="M142.496 11.3549L137.233 18.2844" stroke="#FE5D5D" stroke-width="0.76" stroke-miterlimit="10"/>
<path d="M138.247 18.2844C138.247 18.7635 138.178 19.2319 138.048 19.6303C137.919 20.0286 137.735 20.3391 137.519 20.5225C137.304 20.7058 137.067 20.7538 136.838 20.6603C136.61 20.5669 136.4 20.3361 136.235 19.9974C136.07 19.6586 135.958 19.2269 135.912 18.757C135.867 18.2871 135.89 17.8001 135.98 17.3574C136.069 16.9148 136.22 16.5364 136.414 16.2703C136.607 16.0041 136.835 15.862 137.068 15.862C137.381 15.862 137.681 16.1172 137.902 16.5715C138.123 17.0258 138.247 17.642 138.247 18.2844V18.2844Z" fill="#D1D7DB"/>
<path d="M134.167 13.0553L136.847 18.2845" stroke="#D1D7DB" stroke-width="0.76" stroke-miterlimit="10"/>
<path d="M54.9424 135.505L73.5093 195.763" stroke="#213033" stroke-width="1.04" stroke-miterlimit="10"/>
<path d="M71.1183 135.505L54.0982 195.879" stroke="#213033" stroke-width="1.04" stroke-miterlimit="10"/>
<path d="M75.9909 140.408C75.9909 140.408 73.0334 145.998 61.2995 143.575C49.5656 141.153 42.1774 128.645 41.5768 100.659C41.2707 83.6921 43.6352 66.975 48.3191 52.9904L76.5915 113.947L75.9909 140.408Z" fill="#FFFFFD"/>
<path d="M54.8518 36.5459C54.8518 36.5459 49.6166 31.7825 48.6194 41.5305C48.6194 41.5305 44.7327 40.1911 42.744 49.3102C40.013 61.83 47.05 67.7696 47.05 67.7696L67.0673 66.0227C67.0673 66.0227 72.6594 51.162 66.0531 45.432C66.0531 45.432 66.1607 36.2198 61.7187 38.1298L54.8518 36.5459Z" fill="#FE5D5D"/>
<path d="M97.9686 186.993L92.994 186.946L90.5804 170.688L95.2207 168.475L97.9686 186.993Z" fill="#FFC9BD"/>
<path d="M92.8184 184.838C93.9855 185.479 96.6371 187.575 97.8779 183.872L106.28 193.189L91.4529 192.991L92.1441 185.712C92.1779 185.413 92.2677 185.154 92.3939 184.99C92.5202 184.827 92.6727 184.772 92.8184 184.838Z" fill="#090B0C"/>
<path d="M106.276 193.246L91.4487 193.044L91.4401 195.688L106.267 195.89L106.276 193.246Z" fill="white"/>
<path d="M75.9909 108.753L85.3962 115.298C86.6125 116.143 87.7153 117.563 88.6158 119.445C89.5163 121.326 90.1892 123.616 90.5804 126.129L99.0394 176.791L90.1554 178.934L80.3876 129.39L75.9909 108.753Z" fill="#2D3F96"/>
<path d="M72.9427 186.97L67.9681 186.923L70.5461 170.7L75.5207 170.746L72.9427 186.97Z" fill="#FFC9BD"/>
<path d="M68.2231 184.838C69.3959 185.479 72.0418 187.575 73.2883 183.872L81.685 193.189L66.8576 192.991L67.5489 185.712C67.5826 185.413 67.6724 185.154 67.7986 184.99C67.9249 184.827 68.0774 184.772 68.2231 184.838Z" fill="#090B0C"/>
<path d="M81.6753 193.237L66.8483 193.035L66.8397 195.679L81.6668 195.881L81.6753 193.237Z" fill="white"/>
<path d="M52.8064 106.424C52.8064 106.424 49.22 124.406 56.1606 130.275C56.1606 130.275 61.4411 133.769 74.4725 132.255L67.6735 176.511L75.9739 178.386L84.5803 130.753C85.082 127.985 85.0872 124.94 84.595 122.165C84.1027 119.39 83.1453 117.067 81.8947 115.613L74.0362 106.424H52.8064Z" fill="#4151B3"/>
<path d="M64.359 55.5759C64.359 55.5759 66.6254 55.5759 67.6339 62.5637C68.6424 69.5515 71.3676 86.4154 71.3676 86.4154L64.6593 97.1067L63.6281 76.3529L64.359 55.5759Z" fill="#C1CCFF"/>
<path d="M84.5689 96.1983H90.3537C91.4075 96.1929 92.4292 96.9424 93.2433 98.3179L95.0847 101.427L94.1215 102.79H83.923L84.5689 96.1983Z" fill="#FFC9BD"/>
<path d="M71.3676 86.4736L85.4188 92.8791L84.9996 101.113H66.3081L65.8888 87.8712L71.3676 86.4736Z" fill="#C1CCFF"/>
<path d="M55.9963 51.8258L49.4919 56.5659L52.4042 102.79H65.6168L66.2401 81.2211C66.2401 81.2211 67.0673 79.183 67.2372 73.7209C67.4286 68.5872 66.787 63.4678 65.4129 59.163L64.359 55.5759L59.3278 52.4547L55.9963 51.8258Z" fill="#C1CCFF"/>
<path d="M65.6225 65.2657C66.4379 67.983 66.9201 71.0666 67.0277 74.2516C67.1353 77.4365 66.865 80.6276 66.2401 83.5504L66.0248 92.1803" stroke="#98ABED" stroke-width="0.75" stroke-miterlimit="10"/>
<path d="M49.4919 56.5659C49.4919 56.5659 46.5231 57.055 46.829 67.7464C47.0273 74.8739 47.5486 88.1158 47.8772 96.1168C47.9497 97.9354 48.3525 99.6314 49.0054 100.868C49.6583 102.104 50.5136 102.79 51.4013 102.79H56.3192L54.0529 65.2657L49.4919 56.5659Z" fill="#C1CCFF"/>
<path d="M67.8888 96.1983H73.6679C74.7189 96.1798 75.7404 96.9126 76.5575 98.2713L78.3989 101.381L77.4357 102.744H67.2372L67.8888 96.1983Z" fill="#FFC9BD"/>
<path d="M53.3277 87.8712L68.6707 93.1353L68.1438 102.79H53.3334L53.3277 87.8712Z" fill="#C1CCFF"/>
<path d="M54.1606 67.7347L54.9425 88.4302L68.6707 93.1353L68.4894 96.4778" stroke="#98ABED" stroke-width="0.75" stroke-miterlimit="10"/>
<path d="M55.458 88.6049L52.2965 87.8712" stroke="#98ABED" stroke-width="0.75" stroke-miterlimit="10"/>
<path d="M61.6054 34.4146C61.5574 35.2268 61.6274 36.0501 61.8065 36.7807C61.9857 37.5113 62.266 38.1167 62.6122 38.5205C62.9584 38.9243 63.3549 39.1086 63.7519 39.0501C64.149 38.9916 64.5287 38.693 64.8433 38.1918C65.1579 37.6906 65.3934 37.0092 65.52 36.2335C65.6466 35.4579 65.6587 34.6225 65.5549 33.8327C65.451 33.0428 65.2357 32.3338 64.9362 31.7949C64.6367 31.256 64.2664 30.9113 63.8717 30.8042C63.6074 30.7325 63.3388 30.7692 63.0814 30.9122C62.824 31.0553 62.5829 31.3018 62.3722 31.6375C62.1614 31.9733 61.9851 32.3916 61.8535 32.8682C61.7219 33.3449 61.6376 33.8705 61.6054 34.4146V34.4146Z" fill="#EFB2A8"/>
<path d="M60.206 15.5825C60.2049 16.8881 60.0155 18.1636 59.6618 19.248C59.3082 20.3324 58.806 21.177 58.2189 21.675C57.6318 22.173 56.9861 22.3021 56.3633 22.046C55.7405 21.7899 55.1686 21.1601 54.7199 20.2361C54.2712 19.3121 53.9658 18.1355 53.8423 16.8549C53.7188 15.5742 53.7827 14.2471 54.0261 13.0411C54.2694 11.8352 54.6811 10.8046 55.2093 10.0795C55.7375 9.3544 56.3584 8.96741 56.9935 8.96741C57.4158 8.96741 57.834 9.13859 58.2242 9.47118C58.6143 9.80376 58.9687 10.2912 59.2671 10.9056C59.5655 11.5201 59.802 12.2494 59.9631 13.0519C60.1242 13.8544 60.2067 14.7144 60.206 15.5825V15.5825Z" fill="#FE5D5D"/>
<path d="M64.6593 27.0425C64.6593 30.3753 64.0152 33.5716 62.8687 35.9282C61.7222 38.2849 60.1673 39.6088 58.5459 39.6088C55.1464 39.6088 51.8432 35.1832 51.8432 28.242C51.8432 21.3008 55.1691 14.4761 58.5459 14.4761C60.1673 14.4761 61.7222 15.8001 62.8687 18.1567C64.0152 20.5134 64.6593 23.7097 64.6593 27.0425V27.0425Z" fill="#FE5D5D"/>
<path d="M60.5743 46.1308L60.0813 55.0984C59.9057 58.2546 58.8688 59.757 57.3674 59.3377C56.0813 59.0232 54.9481 57.3578 54.9424 54.6792L56.0756 40.6454L60.5743 46.1308Z" fill="#FFC9BD"/>
<path d="M60.3363 50.4399C57.2768 49.8925 55.6337 42.1361 55.6337 42.1361L60.6366 45.2223L60.3363 50.4399Z" fill="#DD9790"/>
<path d="M59.1805 47.0275C61.7697 47.307 64.0021 43.3473 64.189 39.0149L64.5913 28.7894C64.6973 26.1817 64.3072 23.5912 63.5031 21.5625C62.699 19.5339 61.5435 18.2252 60.2796 17.9117C57.5884 17.2479 54.6705 21.0795 54.3419 26.6232L54.0642 34.8455C53.9878 36.3452 54.0615 37.8611 54.281 39.3C54.5005 40.7388 54.8611 42.0699 55.3404 43.2113C55.8198 44.3527 56.4078 45.2802 57.0683 45.9365C57.7287 46.5929 58.4475 46.9642 59.1805 47.0275V47.0275Z" fill="#FFC9BD"/>
<path d="M61.7867 37.6639L62.1154 39.6088H61.3051" stroke="#201D2F" stroke-width="0.57" stroke-linecap="round" stroke-linejoin="round"/>
<path d="M59.0331 29.8842C59.0331 29.8842 60.3249 29.5697 60.2796 30.944C60.2796 30.944 60.24 31.864 59.1125 32.1086C57.985 32.3532 57.7017 32.1086 57.6393 31.2468C57.577 30.385 58.4269 29.9075 59.0331 29.8842Z" fill="#FE5D5D"/>
<path d="M63.4525 30.3034C63.4525 30.3034 62.5346 29.9424 62.444 31.1886C62.444 31.1886 62.3873 32.0271 63.1919 32.3532C63.9964 32.6793 64.2684 32.3532 64.325 31.6661C64.3817 30.9789 63.8888 30.3617 63.4525 30.3034Z" fill="#FE5D5D"/>
<path d="M59.7867 34.9154C59.7867 35.1019 59.7598 35.2843 59.7094 35.4395C59.6589 35.5946 59.5872 35.7155 59.5034 35.7869C59.4195 35.8583 59.3273 35.877 59.2382 35.8406C59.1492 35.8042 59.0674 35.7143 59.0033 35.5824C58.9391 35.4505 58.8954 35.2824 58.8777 35.0994C58.8599 34.9164 58.869 34.7267 58.9038 34.5544C58.9385 34.382 58.9973 34.2347 59.0728 34.131C59.1483 34.0273 59.237 33.972 59.3278 33.972C59.4495 33.972 59.5662 34.0714 59.6523 34.2483C59.7383 34.4252 59.7867 34.6652 59.7867 34.9154V34.9154Z" fill="#201D2F"/>
<path d="M63.1862 36.1266C63.4146 36.1266 63.5998 35.746 63.5998 35.2764C63.5998 34.8069 63.4146 34.4262 63.1862 34.4262C62.9578 34.4262 62.7726 34.8069 62.7726 35.2764C62.7726 35.746 62.9578 36.1266 63.1862 36.1266Z" fill="#201D2F"/>
<path d="M59.3278 41.0064H61.9624C61.9624 41.0064 62.0587 42.9164 60.6479 42.8931C59.2371 42.8698 59.3278 41.0064 59.3278 41.0064Z" fill="#FFFFFD"/>
<path d="M54.9425 32.3998C56.0905 31.683 57.1319 30.3815 57.9699 28.6163C58.8078 26.851 59.4153 24.6792 59.7357 22.3024L59.2768 17.2596C59.2768 17.2596 52.6478 15.9668 53.9453 30.2103L54.9425 32.3998Z" fill="#FE5D5D"/>
<path d="M57.7584 22.8498C57.7584 22.8498 59.7867 28.4284 66.2571 29.4882C66.2571 29.4882 66.5913 15.9435 59.2541 17.2596L57.7584 22.8498Z" fill="#FE5D5D"/>
<path d="M54.1606 18.2262C55.0497 16.663 56.0966 15.5253 57.2258 14.8954C58.1701 14.4004 59.1597 14.4004 60.104 14.8954" stroke="white" stroke-width="0.76" stroke-linecap="round" stroke-linejoin="round"/>
<path d="M56.1323 30.6528L54.5855 35.6608L54.1606 27.9276L56.1323 30.6528Z" fill="#FE5D5D"/>
<path d="M51.3277 33.4713C51.281 34.2805 51.3517 35.1 51.5308 35.8269C51.71 36.5538 51.9897 37.1557 52.3348 37.5568C52.6798 37.958 53.0749 38.1407 53.4703 38.0819C53.8657 38.023 54.2438 37.7253 54.5571 37.2261C54.8705 36.727 55.1051 36.0486 55.2314 35.2762C55.3578 34.5038 55.3703 33.6719 55.2674 32.885C55.1645 32.098 54.9508 31.3911 54.653 30.8531C54.3553 30.315 53.9869 29.9699 53.594 29.8609C53.3294 29.7859 53.0602 29.8203 52.8022 29.9621C52.5442 30.1038 52.3025 30.3501 52.0914 30.6863C51.8803 31.0226 51.704 31.4422 51.5729 31.9204C51.4417 32.3987 51.3584 32.9259 51.3277 33.4713V33.4713Z" fill="#FFC9BD"/>
<path d="M53.9509 35.3812C53.9509 35.3812 54.1266 32.3998 52.7101 32.5279" stroke="#201D2F" stroke-width="0.57" stroke-linecap="round" stroke-linejoin="round"/>
<path d="M51.8206 54.8772C51.8206 54.8772 53.5997 59.3959 57.6394 61.2011C58.8217 61.6676 60.0459 61.3231 61.1237 60.2205C62.2016 59.118 63.0735 57.3185 63.6055 55.0984C63.6055 55.0984 59.9624 51.8258 58.9595 51.8258L55.1238 52.4664L51.8206 54.8772Z" fill="#FFC9BD"/>
<path d="M96.7334 195.949L110.66 106.447L124.938 194.866" stroke="#213033" stroke-width="1.04" stroke-miterlimit="10"/>
<path d="M32.7495 195.949L46.6817 106.447L60.9595 194.866" stroke="#213033" stroke-width="1.04" stroke-miterlimit="10"/>
<path d="M67.6848 102.837H28.0582V110.046H67.6848V102.837Z" fill="#111D36"/>
<path d="M133.992 102.837H66.801V110.046H133.992V102.837Z" fill="#24385B"/>
<path d="M79.8097 99.995H97.1017C97.2865 99.995 97.4638 100.146 97.5945 100.415C97.7252 100.683 97.7986 101.048 97.7986 101.427C97.7986 101.807 97.7252 102.172 97.5945 102.44C97.4638 102.709 97.2865 102.86 97.1017 102.86H79.8097C79.6248 102.86 79.4476 102.709 79.3169 102.44C79.1862 102.172 79.1128 101.807 79.1128 101.427C79.1128 101.048 79.1862 100.683 79.3169 100.415C79.4476 100.146 79.6248 99.995 79.8097 99.995V99.995Z" fill="#090B0C"/>
<path d="M70.9257 99.995H83.3905C83.5749 99.998 83.7513 100.15 83.8816 100.418C84.012 100.686 84.0859 101.048 84.0874 101.427V101.427C84.0867 101.621 84.0671 101.813 84.0297 101.99C83.9923 102.168 83.9378 102.329 83.8697 102.462C83.8015 102.596 83.7209 102.7 83.6327 102.768C83.5446 102.837 83.4506 102.868 83.3565 102.86H70.8917C70.8002 102.86 70.7096 102.823 70.625 102.751C70.5405 102.679 70.4637 102.573 70.3989 102.44C70.3342 102.307 70.2829 102.149 70.2479 101.976C70.2129 101.802 70.1948 101.616 70.1948 101.427V101.427C70.1947 101.233 70.2138 101.041 70.2509 100.863C70.2881 100.684 70.3425 100.523 70.4108 100.389C70.4792 100.255 70.5601 100.151 70.6486 100.083C70.7371 100.016 70.8314 99.9855 70.9257 99.995V99.995Z" fill="#3D5056"/>
<path d="M82.1213 89.2105L118.615 89.2105C119.513 89.2105 120.241 87.714 120.241 85.868V37.9318C120.241 36.0858 119.513 34.5893 118.615 34.5893L82.1213 34.5893C81.2232 34.5893 80.4952 36.0858 80.4952 37.9318V85.868C80.4952 87.714 81.2232 89.2105 82.1213 89.2105Z" fill="#273237"/>
<path d="M82.9882 89.2105L119.482 89.2105C120.38 89.2105 121.108 87.714 121.108 85.868V37.9318C121.108 36.0858 120.38 34.5893 119.482 34.5893L82.9882 34.5893C82.0901 34.5893 81.3621 36.0858 81.3621 37.9318V85.868C81.3621 87.714 82.0901 89.2105 82.9882 89.2105Z" fill="#273237"/>
<path d="M98.6768 59.9899L89.1526 89.2105H102.852L98.6768 59.9899Z" fill="#090B0C"/>
<path d="M105.504 59.2445H99.3794C99.2507 59.2429 99.1234 59.3001 99.0068 59.4122C98.8902 59.5242 98.7872 59.6882 98.7053 59.8923C98.6233 60.0964 98.5645 60.3354 98.5332 60.592C98.5018 60.8486 98.4986 61.1164 98.5239 61.3758L102.49 101.427C102.528 101.832 102.634 102.197 102.789 102.459C102.944 102.72 103.139 102.862 103.34 102.86H109.77C109.9 102.861 110.029 102.802 110.146 102.687C110.264 102.572 110.367 102.405 110.449 102.197C110.53 101.989 110.588 101.746 110.618 101.485C110.648 101.225 110.648 100.955 110.62 100.694L106.36 60.6421C106.317 60.2427 106.208 59.8858 106.053 59.6313C105.897 59.3768 105.703 59.2403 105.504 59.2445V59.2445Z" fill="#3D5056"/>
<path d="M96.5578 99.995H107.861V102.86H96.5578C96.4663 102.86 96.3757 102.823 96.2911 102.751C96.2066 102.679 96.1297 102.573 96.065 102.44C96.0003 102.307 95.949 102.149 95.9139 101.976C95.8789 101.802 95.8609 101.616 95.8609 101.427V101.427C95.8609 101.048 95.9343 100.683 96.065 100.415C96.1957 100.146 96.373 99.995 96.5578 99.995V99.995Z" fill="#3D5056"/>
<path d="M148.117 195.879H5.62161" stroke="#213033" stroke-width="1.04" stroke-miterlimit="10"/>
</svg>
