<svg width="30" height="30" viewBox="0 0 30 30" fill="none" xmlns="http://www.w3.org/2000/svg">
<path d="M10.5 18.75C6.98999 18.75 0 21.2571 0 26.2501V30H21V26.2501C21 21.2571 14.01 18.75 10.5 18.75ZM3.51 25.7143C4.77 24.4714 7.81502 23.0358 10.5 23.0358C13.185 23.0358 16.23 24.4714 17.49 25.7143H3.51ZM10.5 15.0001C13.395 15.0001 15.75 11.6357 15.75 7.49996C15.75 3.36432 13.395 0 10.5 0C7.60496 0 5.25 3.36432 5.25 7.49996C5.25 11.6357 7.60496 15.0001 10.5 15.0001ZM10.5 4.28567C11.745 4.28567 12.75 5.72143 12.75 7.49996C12.75 9.27862 11.745 10.7142 10.5 10.7142C9.25502 10.7142 8.24999 9.27862 8.24999 7.49996C8.24999 5.72143 9.25502 4.28567 10.5 4.28567ZM21.0599 18.8785C22.8 20.6786 24 23.0786 24 26.2501V30H30V26.2501C30 21.9215 24.7499 19.4571 21.0599 18.8785ZM19.5 15.0001C22.395 15.0001 24.7499 11.6357 24.7499 7.49996C24.7499 3.36432 22.395 0 19.5 0C18.69 0 17.94 0.278576 17.25 0.75001C18.195 2.65718 18.75 4.99281 18.75 7.49996C18.75 10.0071 18.195 12.3429 17.25 14.25C17.94 14.7214 18.69 15.0001 19.5 15.0001Z" fill="#CCCCCC"/>
</svg>
