<svg width="38" height="35" viewBox="0 0 38 35" fill="none" xmlns="http://www.w3.org/2000/svg">
<ellipse cx="19" cy="17.5" rx="19" ry="17.5" fill="#EFEFF9"/>
<path d="M25.5217 10H11.4783C11.0862 10 10.7102 10.1727 10.433 10.4802C10.1557 10.7876 10 11.2046 10 11.6393V23.3607C10 23.7954 10.1557 24.2124 10.433 24.5198C10.7102 24.8273 11.0862 25 11.4783 25H25.5217C25.9138 25 26.2898 24.8273 26.567 24.5198C26.8443 24.2124 27 23.7954 27 23.3607V11.6393C27 11.2046 26.8443 10.7876 26.567 10.4802C26.2898 10.1727 25.9138 10 25.5217 10V10ZM24.2726 14.5656L19.5126 17.582C19.2052 17.7807 18.8558 17.8854 18.5 17.8854C18.1442 17.8854 17.7948 17.7807 17.4874 17.582L12.7274 14.5656C12.5571 14.4588 12.4319 14.2815 12.3792 14.0726C12.3266 13.8636 12.3508 13.64 12.4465 13.4508C12.4948 13.3569 12.5594 13.2745 12.6365 13.2084C12.7136 13.1422 12.8018 13.0937 12.8959 13.0655C12.99 13.0373 13.0883 13.03 13.1849 13.0441C13.2816 13.0582 13.3748 13.0933 13.4591 13.1475L18.2191 16.1639C18.3052 16.2163 18.4018 16.2438 18.5 16.2438C18.5982 16.2438 18.6948 16.2163 18.7809 16.1639L23.5409 13.1475C23.6252 13.0933 23.7184 13.0582 23.8151 13.0441C23.9117 13.03 24.01 13.0373 24.1041 13.0655C24.1982 13.0937 24.2864 13.1422 24.3635 13.2084C24.4406 13.2745 24.5052 13.3569 24.5535 13.4508C24.6492 13.64 24.6734 13.8636 24.6208 14.0726C24.5681 14.2815 24.4429 14.4588 24.2726 14.5656Z" fill="#6263D5"/>
</svg>
